<?xml version="1.0" standalone="no"?>
<!DOCTYPE svg PUBLIC "-//W3C//DTD SVG 20010904//EN"
 "http://www.w3.org/TR/2001/REC-SVG-20010904/DTD/svg10.dtd">
<svg version="1.0" xmlns="http://www.w3.org/2000/svg"
 width="512.000000pt" height="512.000000pt" viewBox="0 0 512.000000 512.000000"
 preserveAspectRatio="xMidYMid meet">

<g transform="translate(0.000000,512.000000) scale(0.100000,-0.100000)"
fill="#000000" stroke="none">
<path d="M3555 5101 c-248 -89 -485 -258 -671 -476 -232 -274 -381 -650 -425
-1073 -12 -114 -7 -618 6 -672 l6 -25 -278 -1 c-289 0 -421 -12 -633 -55 -590
-120 -1113 -422 -1436 -828 -90 -113 -114 -154 -121 -211 -14 -101 110 -200
215 -170 49 13 68 30 135 120 31 41 70 91 86 110 l30 35 693 -693 693 -693
-45 -39 c-25 -22 -75 -61 -111 -87 -88 -63 -114 -101 -113 -169 1 -102 91
-184 187 -171 91 12 345 227 510 431 254 316 432 703 516 1121 46 228 55 329
55 627 l1 288 55 -8 c30 -4 186 -7 345 -7 311 1 399 9 610 61 385 95 705 273
935 521 179 194 339 516 316 638 -10 53 -77 121 -130 130 -78 15 -173 -40
-197 -113 -6 -20 -25 -70 -42 -110 l-30 -74 -604 604 -603 603 47 22 c27 13
75 31 107 40 79 22 132 73 141 135 13 85 -28 164 -101 194 -44 18 -88 17 -149
-5z m302 -1248 l644 -637 -48 -43 c-131 -115 -317 -226 -462 -274 l-63 -21
-97 93 c-53 52 -290 287 -528 523 l-431 429 20 56 c37 102 104 237 158 317 50
73 147 194 157 194 3 0 295 -287 650 -637z m-357 -1055 c0 -12 -423 -9 -558 4
-111 10 -123 13 -127 32 -15 71 -25 257 -25 454 l0 227 355 -355 c195 -195
355 -358 355 -362z m-991 -293 c12 -13 6 -537 -8 -642 -7 -57 -16 -103 -20
-103 -10 0 -726 719 -721 724 5 4 159 22 255 30 76 6 486 -2 494 -9z m-635
-642 l516 -522 -39 -104 c-22 -58 -65 -155 -94 -216 -53 -106 -156 -273 -179
-287 -12 -8 -1350 1326 -1345 1341 6 17 164 120 260 168 125 63 328 147 349
144 9 -1 249 -237 532 -524z"/>
</g>
</svg>
