<?xml version="1.0" standalone="no"?>
<!DOCTYPE svg PUBLIC "-//W3C//DTD SVG 20010904//EN" "http://www.w3.org/TR/2001/REC-SVG-20010904/DTD/svg10.dtd">
<svg version="1.0" xmlns="http://www.w3.org/2000/svg" width="512.000000pt" height="512.000000pt"
    viewBox="0 0 512.000000 512.000000" preserveAspectRatio="xMidYMid meet">

    <g transform="translate(0.000000,512.000000) scale(0.100000,-0.100000)" fill="#000000" stroke="none">
        <path d="M2380 4517 c-48 -16 -113 -83 -128 -133 -38 -128 4 -253 103 -305
l45 -24 0 -341 0 -342 -269 -468 c-147 -258 -327 -571 -398 -695 -71 -124
-135 -246 -142 -272 -44 -155 39 -332 187 -400 47 -22 49 -22 946 -25 l899 -2
211 121 c116 67 216 129 221 138 6 9 12 115 15 235 l5 220 185 107 c155 90
187 112 198 139 10 24 12 91 10 271 l-3 239 -25 23 c-31 30 -426 257 -446 257
-20 0 -50 -16 -231 -121 -84 -49 -157 -89 -162 -89 -6 0 -92 47 -193 105 -100
58 -192 105 -205 105 -16 0 -30 14 -52 54 l-31 53 0 346 0 345 29 12 c16 6 43
25 61 43 54 52 65 83 65 177 0 75 -3 91 -28 132 -18 31 -44 57 -75 75 l-47 28
-355 2 c-242 1 -366 -2 -390 -10z m718 -169 c7 -7 12 -33 12 -58 0 -25 -5 -51
-12 -58 -9 -9 -98 -12 -339 -12 -365 0 -354 -2 -354 70 0 72 -11 70 354 70
241 0 330 -3 339 -12z m-148 -655 c0 -278 3 -364 13 -383 8 -14 28 -50 45 -81
l32 -55 -131 -75 c-192 -108 -179 -82 -179 -369 0 -131 4 -250 10 -264 6 -16
41 -44 106 -82 l97 -57 -134 -28 c-272 -58 -310 -63 -464 -63 -139 0 -324 17
-365 32 -15 6 26 85 281 527 l298 520 1 368 0 367 195 0 195 0 0 -357z m412
-702 l153 -89 3 -179 2 -178 -155 -88 c-85 -49 -159 -87 -163 -85 -5 1 -75 41
-156 88 l-146 84 0 181 1 180 152 87 c84 48 153 87 154 88 1 0 70 -40 155 -89z
m788 -3 l145 -84 3 -180 2 -179 -146 -85 c-81 -47 -151 -87 -156 -89 -5 -1
-79 37 -164 85 l-154 89 2 179 3 178 150 88 c83 49 155 87 160 85 6 -2 75 -41
155 -87z m-395 -676 l150 -88 3 -179 2 -180 -155 -88 c-85 -49 -158 -87 -163
-85 -4 1 -74 41 -155 88 l-147 85 0 180 1 180 152 87 c84 48 154 87 157 87 3
0 73 -39 155 -87z m-625 -329 c0 -109 4 -204 9 -211 5 -8 42 -34 82 -58 l74
-44 -715 2 -715 3 -37 23 c-53 33 -82 85 -83 147 0 44 8 65 58 155 33 58 62
108 65 111 4 4 59 -2 122 -14 92 -16 160 -20 340 -21 l225 -1 225 47 c231 49
262 54 318 57 l32 1 0 -197z" />
    </g>
</svg>