<?xml version="1.0" standalone="no"?>
<!DOCTYPE svg PUBLIC "-//W3C//DTD SVG 20010904//EN"
 "http://www.w3.org/TR/2001/REC-SVG-20010904/DTD/svg10.dtd">
<svg version="1.0" xmlns="http://www.w3.org/2000/svg"
 width="512.000000pt" height="512.000000pt" viewBox="0 0 512.000000 512.000000"
 preserveAspectRatio="xMidYMid meet">

<g transform="translate(0.000000,512.000000) scale(0.100000,-0.100000)"
fill="#000000" stroke="none">
<path d="M320 4961 c-78 -24 -157 -99 -178 -169 -16 -52 -17 -3428 -2 -3484
16 -56 69 -119 125 -147 l49 -26 753 -3 753 -2 0 -360 0 -360 740 0 740 0 0
360 0 360 753 2 753 3 49 26 c56 28 109 91 125 147 15 56 14 3432 -2 3484 -15
50 -78 122 -132 151 l-41 22 -2230 2 c-1227 1 -2241 -2 -2255 -6z m4471 -161
c52 -28 49 63 49 -1750 0 -1847 4 -1722 -60 -1755 -26 -13 -281 -15 -2220 -15
-1939 0 -2194 2 -2220 15 -64 33 -60 -92 -60 1755 0 1805 -2 1720 47 1749 25
14 4437 15 4464 1z m-1651 -3950 l0 -280 -580 0 -580 0 0 280 0 280 580 0 580
0 0 -280z"/>
<path d="M440 3150 l0 -1510 2120 0 2120 0 0 1510 0 1510 -2120 0 -2120 0 0
-1510z m4090 -5 l0 -1355 -1970 0 -1970 0 0 1355 0 1355 1970 0 1970 0 0
-1355z"/>
<path d="M4118 4337 c-169 -58 -319 -220 -456 -494 -22 -44 -84 -180 -137
-304 -100 -233 -202 -446 -235 -489 l-19 -25 -21 50 c-12 28 -71 176 -131 330
-174 445 -260 607 -389 735 -103 101 -218 150 -355 150 -255 -1 -422 -157
-559 -522 -20 -54 -72 -222 -117 -375 -96 -333 -147 -487 -198 -598 -35 -75
-41 -83 -72 -88 -73 -14 -218 -27 -294 -27 -44 0 -97 -3 -118 -6 l-37 -7 0
-73 0 -74 68 0 c37 0 121 5 186 10 66 6 121 8 124 6 2 -3 -34 -43 -79 -89
-128 -128 -243 -184 -429 -208 l-90 -12 0 -75 0 -75 79 7 c288 24 524 171 683
426 40 64 41 65 107 81 176 44 359 135 470 236 90 81 140 153 226 327 66 132
85 162 108 170 22 8 33 6 55 -10 38 -29 55 -69 96 -229 77 -298 168 -402 362
-413 91 -5 170 13 242 55 24 14 47 22 51 17 4 -5 27 -40 51 -79 221 -359 528
-557 901 -582 l99 -6 0 76 0 75 -77 7 c-261 23 -448 107 -616 278 -71 72 -170
210 -227 313 l-23 42 46 63 c66 94 143 245 252 499 53 124 121 274 151 334
139 280 283 424 443 443 l51 6 0 73 0 74 -52 0 c-29 0 -83 -11 -120 -23z
m-1605 -230 c73 -34 138 -95 201 -190 73 -112 111 -189 201 -417 42 -107 97
-247 122 -310 25 -63 64 -155 86 -204 38 -86 39 -90 21 -103 -95 -71 -223 -81
-297 -22 -38 29 -80 126 -117 269 -43 167 -63 219 -107 270 -46 53 -102 79
-171 80 -110 0 -165 -51 -252 -236 -32 -67 -76 -149 -99 -182 -79 -117 -212
-215 -380 -282 -29 -11 -56 -19 -58 -16 -2 2 16 60 41 127 24 68 80 248 125
399 99 341 140 460 196 575 48 97 122 189 182 226 87 54 211 60 306 16z"/>
<path d="M4020 1460 l0 -80 75 0 75 0 0 80 0 80 -75 0 -75 0 0 -80z"/>
<path d="M4280 1460 l0 -81 73 3 72 3 3 78 3 77 -76 0 -75 0 0 -80z"/>
<path d="M4532 1463 l3 -78 73 -3 72 -3 0 81 0 80 -75 0 -76 0 3 -77z"/>
<path d="M1567 706 c-104 -28 -210 -133 -242 -241 -10 -32 -15 -94 -15 -182
l0 -133 798 0 c438 0 1003 3 1255 7 l459 6 -4 141 c-3 130 -6 146 -32 203 -34
74 -113 154 -183 184 -34 15 -77 23 -145 27 l-98 5 0 -75 0 -75 78 -6 c85 -5
122 -19 166 -63 40 -40 57 -78 63 -140 l6 -54 -1108 0 -1107 0 4 55 c6 71 49
142 106 173 31 17 65 25 122 29 l80 6 0 73 0 74 -77 -1 c-43 0 -99 -6 -126
-13z"/>
</g>
</svg>
