<?xml version="1.0" standalone="no"?>
<!DOCTYPE svg PUBLIC "-//W3C//DTD SVG 20010904//EN"
 "http://www.w3.org/TR/2001/REC-SVG-20010904/DTD/svg10.dtd">
<svg version="1.0" xmlns="http://www.w3.org/2000/svg"
 width="512.000000pt" height="512.000000pt" viewBox="0 0 512.000000 512.000000"
 preserveAspectRatio="xMidYMid meet">

<g transform="translate(0.000000,512.000000) scale(0.100000,-0.100000)"
fill="#000000" stroke="none">
<path d="M1755 4440 c-38 -60 -41 -91 -13 -117 19 -17 1031 -608 1132 -660 38
-20 67 -6 101 46 27 45 32 79 13 103 -7 9 -268 163 -579 342 -417 241 -574
326 -597 326 -26 0 -36 -7 -57 -40z"/>
<path d="M1683 4178 c-19 -22 -699 -1196 -724 -1251 -11 -24 -10 -31 7 -54 19
-25 997 -598 1042 -609 13 -4 33 -2 45 3 14 7 79 109 176 277 98 171 157 264
165 259 6 -4 486 -310 1066 -681 580 -372 1064 -677 1075 -679 12 -3 31 4 43
14 23 19 179 283 188 319 3 12 -2 29 -13 41 -10 12 -520 281 -1133 598 -613
318 -1118 579 -1122 581 -3 2 63 124 148 271 85 147 154 277 154 288 0 12 -6
28 -12 37 -11 13 -908 536 -1015 591 -43 23 -66 21 -90 -5z"/>
<path d="M808 2788 c-27 -21 -61 -96 -54 -121 6 -27 10 -29 661 -404 531 -307
511 -296 536 -288 29 9 79 83 79 116 0 16 -9 36 -19 46 -40 36 -1139 663
-1163 663 -13 0 -31 -6 -40 -12z"/>
<path d="M4906 1728 c-14 -13 -68 -98 -121 -190 -121 -209 -121 -214 -20 -275
79 -48 113 -53 142 -20 26 28 202 334 209 363 3 12 1 31 -5 42 -11 20 -147
102 -169 102 -6 0 -22 -10 -36 -22z"/>
<path d="M274 1544 c-17 -8 -37 -27 -45 -41 -18 -34 -19 -184 -1 -205 11 -13
2 -16 -71 -20 -152 -10 -157 -20 -157 -323 0 -181 3 -233 15 -259 31 -65 -67
-61 1335 -64 701 -2 1295 0 1319 3 30 5 54 16 73 35 l28 28 0 254 c0 247 -1
254 -23 281 -25 32 -74 46 -156 47 -47 0 -52 2 -45 18 17 35 16 168 0 201 -34
65 34 61 -1158 61 -953 0 -1087 -2 -1114 -16z m2318 -462 c33 -32 33 -33 33
-132 0 -99 0 -100 -33 -132 l-32 -33 -1138 -3 c-625 -1 -1152 0 -1171 3 -20 4
-47 20 -63 37 -27 29 -28 35 -28 124 0 106 12 137 65 160 24 11 239 13 1182
11 l1153 -2 32 -33z"/>
</g>
</svg>
