<?xml version="1.0" standalone="no"?>
<!DOCTYPE svg PUBLIC "-//W3C//DTD SVG 20010904//EN"
 "http://www.w3.org/TR/2001/REC-SVG-20010904/DTD/svg10.dtd">
<svg version="1.0" xmlns="http://www.w3.org/2000/svg"
 width="512.000000pt" height="512.000000pt" viewBox="0 0 512.000000 512.000000"
 preserveAspectRatio="xMidYMid meet">

<g transform="translate(0.000000,512.000000) scale(0.100000,-0.100000)"
fill="#000000" stroke="none">
<path d="M745 5106 c-94 -30 -159 -76 -209 -149 -72 -106 -85 -247 -34 -358
14 -30 296 -499 627 -1042 371 -607 601 -994 599 -1005 -3 -9 -274 -458 -603
-997 -329 -539 -609 -1004 -623 -1034 -51 -111 -38 -252 34 -358 42 -61 83
-94 162 -131 l57 -27 1805 0 1805 0 65 31 c83 39 145 101 184 184 28 58 31 75
31 155 0 78 -4 98 -29 152 -37 82 -120 161 -201 194 l-60 24 -1421 5 -1421 5
502 824 c519 849 535 879 535 981 0 102 -16 132 -535 981 l-502 824 1421 5
1421 5 60 24 c81 33 164 112 201 194 25 54 29 74 29 152 0 80 -3 97 -31 155
-39 83 -101 145 -184 184 l-65 31 -1790 2 c-1425 1 -1798 -1 -1830 -11z"/>
</g>
</svg>
