<?xml version="1.0" standalone="no"?>
<!DOCTYPE svg PUBLIC "-//W3C//DTD SVG 20010904//EN" "http://www.w3.org/TR/2001/REC-SVG-20010904/DTD/svg10.dtd">
<svg version="1.0" xmlns="http://www.w3.org/2000/svg" width="512.000000pt" height="512.000000pt"
    viewBox="0 0 512.000000 512.000000" preserveAspectRatio="xMidYMid meet">

    <g transform="translate(0.000000,512.000000) scale(0.100000,-0.100000)" fill="#000000" stroke="none">
        <path d="M1317 4794 c-53 -16 -122 -77 -154 -135 -16 -30 -18 -61 -18 -289 l0
-255 28 -48 c27 -46 88 -100 135 -118 21 -8 22 -12 22 -154 0 -101 -4 -156
-14 -178 -7 -18 -136 -240 -287 -493 -150 -252 -281 -481 -291 -509 -16 -46
-17 -123 -18 -1057 0 -992 0 -1008 21 -1062 14 -39 35 -68 70 -100 90 -81 0
-76 1289 -76 1305 0 1205 -7 1296 85 l52 51 38 -29 c59 -44 150 -85 233 -103
291 -65 592 126 667 425 21 84 15 233 -12 312 -43 122 -75 160 -491 580 l-403
405 0 250 c0 198 -3 261 -16 303 -9 31 -126 239 -286 508 -148 250 -278 474
-289 497 -15 34 -19 66 -19 189 0 144 1 148 23 156 46 18 107 72 134 118 l28
48 0 255 c0 287 1 281 -78 363 -78 80 -48 77 -881 76 -616 0 -739 -3 -779 -15z
m1528 -148 c59 -25 65 -50 65 -276 0 -160 -3 -207 -15 -230 -32 -62 -4 -60
-795 -60 -791 0 -763 -2 -795 60 -22 43 -22 418 1 461 30 59 13 58 792 59 594
0 718 -2 747 -14z m-133 -863 c4 -108 11 -163 25 -203 10 -30 142 -262 292
-515 151 -253 276 -468 279 -477 4 -17 -53 -18 -1212 -18 l-1217 0 12 23 c7
12 132 225 279 472 147 248 270 460 274 472 l7 22 400 3 401 3 24 28 c30 35
30 59 0 94 l-24 28 -386 3 -386 3 0 98 c0 54 3 101 7 104 3 4 279 7 613 7
l607 0 5 -147z m618 -1484 c0 -66 -3 -119 -7 -117 -174 88 -296 107 -447 68
-102 -26 -188 -73 -254 -139 -188 -187 -230 -436 -116 -671 34 -70 62 -101
432 -472 l395 -396 -23 -36 c-43 -71 42 -66 -1212 -66 -1106 0 -1134 1 -1165
20 -54 32 -63 63 -63 210 l0 130 734 0 c727 0 734 0 760 21 36 28 36 80 0 108
-26 21 -33 21 -760 21 l-734 0 0 720 0 720 1230 0 1230 0 0 -121z m-228 -190
c116 -24 136 -41 624 -532 539 -540 519 -514 519 -698 0 -101 -1 -108 -38
-181 -104 -211 -352 -295 -565 -192 -44 21 -103 73 -262 230 l-205 203 193
193 c165 166 192 197 192 224 0 41 -32 74 -72 74 -28 0 -56 -24 -225 -192
l-194 -193 -199 200 c-174 176 -203 209 -233 273 -57 118 -58 238 -3 358 35
76 72 118 146 169 99 68 204 89 322 64z" />
        <path d="M1576 2049 c-25 -20 -26 -23 -26 -139 l0 -118 -119 -4 c-139 -4 -161
-14 -161 -78 0 -57 16 -64 154 -70 l121 -5 5 -123 c6 -137 13 -152 75 -152 58
0 70 26 73 161 l4 119 118 0 c116 0 119 1 139 26 36 46 22 93 -33 114 -15 5
-72 10 -127 10 l-99 0 0 105 c0 116 -13 158 -52 169 -36 9 -43 8 -72 -15z" />
    </g>
</svg>