<?xml version="1.0" standalone="no"?>
<!DOCTYPE svg PUBLIC "-//W3C//DTD SVG 20010904//EN"
 "http://www.w3.org/TR/2001/REC-SVG-20010904/DTD/svg10.dtd">
<svg version="1.0" xmlns="http://www.w3.org/2000/svg"
 width="512.000000pt" height="512.000000pt" viewBox="0 0 512.000000 512.000000"
 preserveAspectRatio="xMidYMid meet">

<g transform="translate(0.000000,512.000000) scale(0.100000,-0.100000)"
fill="#000000" stroke="none">
<path d="M2451 5105 c-275 -77 -531 -452 -687 -1002 -18 -65 -34 -103 -42
-103 -8 0 -49 9 -91 20 -480 122 -896 117 -1116 -15 -87 -52 -141 -110 -183
-195 l-37 -74 0 -131 c1 -119 3 -138 31 -219 l31 -89 -23 -35 c-89 -131 3
-302 165 -306 l58 -1 72 -90 c39 -49 117 -138 172 -197 l100 -108 -103 -112
c-252 -274 -394 -488 -470 -708 -30 -88 -32 -104 -33 -225 l0 -131 38 -76 c66
-135 190 -222 382 -270 77 -19 117 -22 275 -22 225 0 381 20 622 80 53 13 103
24 110 24 8 0 24 -39 42 -103 16 -56 52 -165 81 -242 262 -703 664 -952 1035
-642 36 30 90 87 120 126 49 64 59 71 90 71 19 0 53 9 75 19 103 47 143 163
91 265 l-24 46 48 128 c26 70 60 173 76 229 18 64 34 103 42 103 7 0 57 -11
110 -24 241 -60 397 -80 622 -80 158 0 198 3 275 22 192 48 316 135 382 270
l38 76 0 131 c-1 121 -3 137 -33 225 -76 220 -218 434 -470 707 l-103 113 103
112 c252 274 394 488 470 708 30 88 32 104 33 225 l0 131 -38 76 c-81 164
-241 256 -502 288 -49 6 -90 12 -90 13 -9 26 -68 84 -99 98 -100 45 -195 12
-261 -91 -21 -33 -27 -36 -102 -48 -43 -7 -134 -26 -202 -42 -67 -17 -128 -30
-134 -30 -7 0 -25 46 -41 103 -147 519 -389 890 -647 988 -71 28 -187 34 -258
14z m248 -185 c187 -100 377 -419 500 -841 17 -59 31 -113 31 -120 0 -9 -43
-29 -111 -52 -132 -45 -315 -117 -456 -181 l-103 -46 -102 46 c-142 64 -325
136 -457 181 -68 23 -111 43 -111 52 0 24 61 223 100 326 139 369 304 593 488
662 60 22 149 11 221 -27z m-1529 -980 c166 -18 497 -83 516 -103 3 -3 -6 -70
-20 -149 -23 -124 -49 -312 -71 -509 l-6 -57 -167 -124 c-92 -69 -221 -172
-287 -228 l-119 -103 -84 89 c-46 49 -122 136 -168 194 -81 100 -85 107 -77
140 27 123 -27 222 -140 255 -41 11 -43 14 -70 91 -24 69 -27 92 -24 174 3
108 18 149 76 206 112 111 342 155 641 124z m3200 -16 c128 -29 237 -100 275
-180 101 -212 -59 -558 -453 -981 l-89 -95 -119 102 c-66 57 -194 159 -286
228 l-167 124 -6 57 c-22 197 -48 385 -71 509 -14 79 -24 146 -21 148 9 9 107
33 257 64 l145 30 35 -34 c41 -40 63 -51 110 -59 71 -13 160 27 195 86 16 27
19 28 73 22 32 -4 86 -13 122 -21z m-2385 -181 c92 -32 358 -138 379 -151 5
-2 -4 -11 -20 -19 -95 -48 -305 -167 -431 -244 -80 -50 -147 -88 -149 -87 -7
8 65 490 82 537 2 8 11 10 22 6 9 -4 62 -23 117 -42z m1313 -84 c25 -137 63
-412 58 -417 -2 -1 -69 37 -149 87 -125 76 -331 193 -432 244 l-30 15 50 22
c154 66 455 179 470 175 5 -1 20 -58 33 -126z m-550 -253 c176 -93 379 -212
543 -318 l86 -55 6 -114 c9 -147 9 -571 0 -718 l-6 -114 -86 -55 c-228 -147
-698 -412 -731 -412 -33 0 -503 265 -731 412 l-86 55 -6 114 c-9 147 -9 571 0
718 l6 113 96 62 c229 148 684 405 719 406 7 0 93 -42 190 -94z m-1173 -846
c0 -192 -2 -350 -3 -350 -15 0 -432 338 -432 350 0 12 414 348 430 350 3 0 5
-157 5 -350z m2083 268 c124 -95 322 -260 322 -268 0 -12 -417 -350 -432 -350
-1 0 -3 158 -3 350 0 193 2 350 3 350 2 0 52 -37 110 -82z m-2521 -479 c65
-56 193 -158 285 -227 l167 -124 6 -57 c22 -197 48 -385 71 -509 14 -79 24
-146 21 -148 -9 -9 -146 -43 -277 -68 -510 -100 -875 -28 -946 187 -73 221 84
544 462 951 49 53 90 96 91 96 2 0 56 -46 120 -101z m3057 5 c266 -286 411
-512 466 -722 17 -64 15 -173 -4 -229 -71 -215 -436 -287 -946 -187 -131 25
-268 59 -277 68 -3 2 7 69 21 148 23 124 49 312 71 509 l6 57 162 120 c89 67
216 168 282 226 66 57 122 105 125 105 3 1 45 -42 94 -95z m-2280 -563 c125
-77 335 -196 430 -244 34 -17 40 -13 -104 -72 -170 -70 -384 -145 -391 -137
-8 8 -54 271 -69 392 -5 47 -13 100 -16 118 -2 17 -3 32 0 32 3 0 70 -40 150
-89z m1442 57 c-3 -18 -11 -71 -16 -118 -15 -121 -61 -384 -69 -392 -7 -8
-221 67 -391 137 -144 59 -138 55 -104 73 99 50 319 174 434 246 74 46 139 85
143 85 4 1 5 -14 3 -31z m-694 -454 c142 -64 325 -136 457 -181 75 -26 111
-43 111 -53 0 -47 -128 -422 -146 -426 -5 -2 -28 -8 -52 -14 -81 -21 -152
-110 -152 -190 0 -19 9 -55 20 -79 l20 -43 -29 -37 c-52 -65 -146 -148 -202
-177 -45 -24 -66 -29 -129 -29 -66 0 -82 4 -138 34 -189 103 -378 420 -501
842 -17 59 -31 113 -31 120 0 9 43 29 111 52 135 46 320 119 454 180 55 25
101 46 102 46 2 1 49 -20 105 -45z"/>
<path d="M2405 3050 c-230 -69 -374 -296 -338 -531 26 -168 153 -320 314 -378
275 -100 588 92 630 385 21 147 -22 280 -125 392 -121 130 -313 183 -481 132z
m269 -169 c236 -116 243 -451 11 -570 -162 -83 -355 -17 -434 149 -21 45 -26
69 -26 135 0 67 4 89 28 137 34 69 100 130 171 158 71 28 182 24 250 -9z"/>
</g>
</svg>
