<svg id="svg" version="1.1" xmlns="http://www.w3.org/2000/svg" xmlns:xlink="http://www.w3.org/1999/xlink" width="400" height="424.69135802469134" viewBox="0, 0, 400,424.69135802469134"><g id="svgg"><path id="path0" d="M202.000 0.557 C 202.000 1.201,203.641 1.712,204.568 1.357 C 205.864 0.860,205.251 0.000,203.600 0.000 C 202.500 0.000,202.000 0.174,202.000 0.557 M210.800 0.351 C 210.800 1.081,212.016 1.683,212.995 1.437 C 214.670 1.017,214.249 0.000,212.400 0.000 C 211.520 0.000,210.800 0.158,210.800 0.351 M198.000 1.400 C 198.000 1.730,197.730 2.000,197.400 2.000 C 196.547 2.000,196.656 3.095,197.558 3.578 C 198.121 3.879,198.442 3.831,198.807 3.392 C 199.077 3.066,199.600 2.800,199.969 2.800 C 200.769 2.800,201.600 2.046,201.600 1.320 C 201.600 0.970,201.010 0.800,199.800 0.800 C 198.467 0.800,198.000 0.956,198.000 1.400 M214.800 1.576 C 214.800 2.597,215.489 2.990,216.218 2.385 C 217.133 1.626,216.915 0.800,215.800 0.800 C 215.077 0.800,214.800 1.015,214.800 1.576 M217.200 2.643 C 217.200 3.481,221.319 7.600,222.157 7.600 C 222.576 7.600,222.800 7.252,222.800 6.600 C 222.800 5.978,222.573 5.600,222.200 5.600 C 221.870 5.600,221.600 5.330,221.600 5.000 C 221.600 4.670,221.330 4.400,221.000 4.400 C 220.670 4.400,220.400 4.130,220.400 3.800 C 220.400 3.470,220.130 3.200,219.800 3.200 C 219.470 3.200,219.200 2.930,219.200 2.600 C 219.200 2.227,218.822 2.000,218.200 2.000 C 217.548 2.000,217.200 2.224,217.200 2.643 M193.200 6.200 C 193.200 6.530,192.930 6.800,192.600 6.800 C 192.227 6.800,192.000 7.178,192.000 7.800 C 192.000 8.502,192.218 8.800,192.730 8.800 C 193.728 8.800,195.360 6.995,195.063 6.220 C 194.757 5.422,193.200 5.405,193.200 6.200 M222.415 8.582 C 221.810 9.311,222.203 10.000,223.224 10.000 C 223.785 10.000,224.000 9.723,224.000 9.000 C 224.000 7.885,223.174 7.667,222.415 8.582 M190.800 10.200 C 190.800 10.923,191.015 11.200,191.576 11.200 C 192.597 11.200,192.990 10.511,192.385 9.782 C 191.626 8.867,190.800 9.085,190.800 10.200 M223.680 10.880 C 222.690 11.870,223.372 14.000,224.680 14.000 C 225.030 14.000,225.200 13.410,225.200 12.200 C 225.200 10.354,224.668 9.892,223.680 10.880 M189.600 16.028 C 189.600 20.391,189.613 20.454,190.500 20.328 C 192.282 20.075,191.943 11.600,190.151 11.600 C 189.716 11.600,189.600 12.534,189.600 16.028 M299.200 16.120 C 299.200 17.412,302.808 18.186,304.967 17.357 C 307.012 16.573,305.590 15.600,302.400 15.600 C 300.041 15.600,299.200 15.737,299.200 16.120 M295.600 17.351 C 295.600 18.963,298.502 19.287,298.728 17.700 C 298.842 16.893,298.687 16.800,297.228 16.800 C 296.112 16.800,295.600 16.973,295.600 17.351 M307.206 17.300 C 307.227 19.035,310.086 19.402,310.328 17.700 C 310.442 16.893,310.287 16.800,308.828 16.800 C 307.789 16.800,307.202 16.981,307.206 17.300 M293.200 18.600 C 293.200 18.930,292.930 19.200,292.600 19.200 C 291.785 19.200,291.836 20.651,292.662 20.969 C 293.477 21.281,295.200 19.762,295.200 18.730 C 295.200 18.218,294.902 18.000,294.200 18.000 C 293.578 18.000,293.200 18.227,293.200 18.600 M310.800 18.551 C 310.800 19.289,311.860 20.133,312.382 19.811 C 313.251 19.274,312.841 18.000,311.800 18.000 C 311.217 18.000,310.800 18.230,310.800 18.551 M313.200 19.742 C 313.200 20.602,315.081 22.400,315.981 22.400 C 316.588 22.400,316.800 22.141,316.800 21.400 C 316.800 20.778,316.573 20.400,316.200 20.400 C 315.870 20.400,315.600 20.130,315.600 19.800 C 315.600 19.400,315.200 19.200,314.400 19.200 C 313.658 19.200,313.200 19.406,313.200 19.742 M223.344 20.201 C 222.932 21.274,223.557 22.800,224.408 22.800 C 225.065 22.800,225.200 22.528,225.200 21.200 C 225.200 19.521,223.878 18.810,223.344 20.201 M190.800 23.000 C 190.800 23.866,190.962 24.033,191.700 23.928 C 192.291 23.844,192.600 23.525,192.600 23.000 C 192.600 22.475,192.291 22.156,191.700 22.072 C 190.962 21.967,190.800 22.134,190.800 23.000 M288.400 23.400 C 288.400 23.730,288.130 24.000,287.800 24.000 C 287.400 24.000,287.200 24.400,287.200 25.200 C 287.200 26.000,287.000 26.400,286.600 26.400 C 286.133 26.400,286.000 26.933,286.000 28.800 C 286.000 30.503,286.151 31.200,286.520 31.200 C 287.402 31.200,288.000 30.299,288.000 28.969 C 288.000 28.270,288.270 27.474,288.600 27.200 C 288.930 26.926,289.200 26.339,289.200 25.895 C 289.200 25.451,289.508 24.863,289.885 24.587 C 290.464 24.164,290.487 23.987,290.036 23.443 C 289.364 22.633,288.400 22.608,288.400 23.400 M222.511 23.649 C 221.890 24.270,222.328 25.200,223.243 25.200 C 223.784 25.200,224.000 24.914,224.000 24.200 C 224.000 23.151,223.277 22.883,222.511 23.649 M317.467 24.267 C 316.786 24.947,317.231 26.000,318.200 26.000 C 319.000 26.000,319.200 25.800,319.200 25.000 C 319.200 24.031,318.147 23.586,317.467 24.267 M192.000 25.400 C 192.000 26.022,192.227 26.400,192.600 26.400 C 192.930 26.400,193.200 26.670,193.200 27.000 C 193.200 27.756,194.750 27.796,195.037 27.047 C 195.302 26.358,193.539 24.400,192.654 24.400 C 192.223 24.400,192.000 24.741,192.000 25.400 M219.300 27.880 C 216.970 30.328,216.594 31.600,218.200 31.600 C 218.822 31.600,219.200 31.373,219.200 31.000 C 219.200 30.670,219.470 30.400,219.800 30.400 C 220.133 30.400,220.400 30.044,220.400 29.600 C 220.400 29.156,220.667 28.800,221.000 28.800 C 221.330 28.800,221.600 28.530,221.600 28.200 C 221.600 27.870,221.870 27.600,222.200 27.600 C 222.573 27.600,222.800 27.222,222.800 26.600 C 222.800 25.004,221.630 25.432,219.300 27.880 M112.922 27.058 C 112.534 28.071,113.904 28.800,116.196 28.800 C 118.342 28.800,119.200 28.320,119.200 27.120 C 119.200 26.090,113.316 26.031,112.922 27.058 M318.880 26.880 C 318.215 27.545,318.280 28.268,319.033 28.557 C 320.159 28.990,320.400 28.821,320.400 27.600 C 320.400 26.342,319.734 26.026,318.880 26.880 M108.000 28.173 C 108.000 28.502,107.530 28.801,106.900 28.873 C 105.489 29.036,105.328 30.533,106.700 30.728 C 107.385 30.825,107.600 30.658,107.600 30.028 C 107.600 29.116,108.007 28.967,108.674 29.634 C 109.500 30.460,110.989 29.892,111.127 28.700 C 111.246 27.660,111.165 27.600,109.627 27.600 C 108.481 27.600,108.000 27.770,108.000 28.173 M119.600 28.351 C 119.600 29.439,120.622 30.131,121.795 29.837 C 123.648 29.372,123.177 27.600,121.200 27.600 C 119.901 27.600,119.600 27.741,119.600 28.351 M123.200 29.619 C 123.200 30.587,125.149 32.395,125.887 32.111 C 126.578 31.846,126.544 30.400,125.847 30.400 C 125.542 30.400,125.199 30.040,125.084 29.600 C 124.795 28.496,123.200 28.513,123.200 29.619 M197.067 29.867 C 196.563 30.370,196.800 31.600,197.400 31.600 C 197.730 31.600,198.000 31.870,198.000 32.200 C 198.000 32.646,198.470 32.800,199.828 32.800 C 202.047 32.800,202.438 31.119,200.276 30.871 C 199.658 30.800,199.054 30.485,198.934 30.171 C 198.708 29.583,197.540 29.393,197.067 29.867 M103.200 31.000 C 103.200 31.330,102.930 31.600,102.600 31.600 C 102.270 31.600,102.000 31.870,102.000 32.200 C 102.000 32.530,101.730 32.800,101.400 32.800 C 101.027 32.800,100.800 33.178,100.800 33.800 C 100.800 35.263,101.831 35.063,103.647 33.247 C 105.463 31.431,105.663 30.400,104.200 30.400 C 103.578 30.400,103.200 30.627,103.200 31.000 M319.771 30.932 C 319.103 32.672,319.809 38.601,320.700 38.728 C 321.585 38.853,321.600 38.783,321.600 34.628 C 321.600 30.645,321.553 30.400,320.787 30.400 C 320.341 30.400,319.883 30.639,319.771 30.932 M214.800 31.772 C 214.800 32.609,214.991 32.800,215.828 32.800 C 217.196 32.800,217.081 31.068,215.700 30.872 C 214.967 30.768,214.800 30.935,214.800 31.772 M202.286 32.248 C 201.387 33.146,202.041 34.000,203.628 34.000 C 205.087 34.000,205.242 33.907,205.128 33.100 C 204.999 32.192,202.954 31.579,202.286 32.248 M211.043 32.633 C 210.595 33.801,210.792 34.000,212.400 34.000 C 213.840 34.000,214.000 33.900,214.000 33.000 C 214.000 31.793,211.485 31.481,211.043 32.633 M127.337 33.420 C 127.040 34.195,128.672 36.000,129.670 36.000 C 130.182 36.000,130.400 35.702,130.400 35.000 C 130.400 34.378,130.173 34.000,129.800 34.000 C 129.470 34.000,129.200 33.730,129.200 33.400 C 129.200 32.605,127.643 32.622,127.337 33.420 M286.000 36.572 C 286.000 38.526,286.097 38.800,286.792 38.800 C 288.372 38.800,288.474 34.696,286.900 34.472 C 286.059 34.353,286.000 34.491,286.000 36.572 M99.200 35.772 C 99.200 36.117,98.930 36.400,98.600 36.400 C 98.165 36.400,98.000 36.847,98.000 38.027 C 98.000 40.101,100.091 40.346,100.327 38.300 C 100.396 37.695,100.634 37.200,100.854 37.200 C 101.075 37.200,101.198 36.795,101.128 36.300 C 100.976 35.230,99.200 34.744,99.200 35.772 M129.867 36.667 C 129.186 37.347,129.631 38.400,130.600 38.400 C 131.400 38.400,131.600 38.200,131.600 37.400 C 131.600 36.431,130.547 35.986,129.867 36.667 M131.043 39.433 C 130.547 40.724,130.784 43.108,131.433 43.357 C 132.648 43.823,132.800 43.583,132.800 41.200 C 132.800 38.768,131.716 37.678,131.043 39.433 M287.200 40.800 C 287.200 41.956,287.367 42.400,287.800 42.400 C 288.130 42.400,288.400 42.670,288.400 43.000 C 288.400 43.683,289.817 43.820,290.216 43.175 C 290.360 42.941,290.191 42.432,289.839 42.043 C 289.488 41.655,289.200 41.072,289.200 40.749 C 289.200 40.020,288.416 39.200,287.720 39.200 C 287.380 39.200,287.200 39.754,287.200 40.800 M318.842 39.566 C 318.072 40.053,318.595 41.200,319.587 41.200 C 320.188 41.200,320.400 40.938,320.400 40.200 C 320.400 39.174,319.828 38.941,318.842 39.566 M96.800 45.000 C 96.800 49.963,97.411 51.523,98.601 49.598 C 98.944 49.043,98.968 40.996,98.628 40.446 C 97.412 38.477,96.800 40.001,96.800 45.000 M317.033 42.605 C 316.269 43.312,316.024 43.844,316.201 44.405 C 316.539 45.469,318.000 45.466,318.000 44.400 C 318.000 43.956,318.267 43.600,318.600 43.600 C 318.973 43.600,319.200 43.222,319.200 42.600 C 319.200 41.319,318.418 41.321,317.033 42.605 M130.961 46.158 C 130.425 47.554,130.984 49.798,131.900 49.928 C 132.741 50.047,132.800 49.909,132.800 47.828 C 132.800 45.598,131.595 44.504,130.961 46.158 M290.800 46.572 C 290.800 47.409,290.991 47.600,291.828 47.600 C 293.196 47.600,293.081 45.868,291.700 45.672 C 290.967 45.568,290.800 45.735,290.800 46.572 M293.467 47.067 C 292.963 47.570,293.200 48.800,293.800 48.800 C 294.130 48.800,294.400 49.070,294.400 49.400 C 294.400 49.833,294.844 50.000,296.000 50.000 C 297.440 50.000,297.600 49.900,297.600 49.000 C 297.600 48.214,297.397 48.000,296.649 48.000 C 296.126 48.000,295.474 47.730,295.200 47.400 C 294.675 46.767,293.913 46.620,293.467 47.067 M312.274 47.352 C 312.149 47.676,311.542 48.000,310.924 48.071 C 308.905 48.303,309.124 50.000,311.172 50.000 C 312.352 50.000,312.800 49.835,312.800 49.400 C 312.800 49.070,313.083 48.800,313.428 48.800 C 313.849 48.800,314.014 48.506,313.928 47.904 C 313.780 46.869,312.609 46.478,312.274 47.352 M298.491 49.669 C 297.172 50.988,297.883 51.200,303.628 51.200 C 309.235 51.200,309.255 51.197,309.128 50.300 C 308.975 49.225,299.497 48.663,298.491 49.669 M98.000 52.000 C 98.000 53.156,98.167 53.600,98.600 53.600 C 98.930 53.600,99.200 53.870,99.200 54.200 C 99.200 54.977,101.037 55.002,101.333 54.229 C 101.454 53.915,101.293 53.443,100.976 53.180 C 100.659 52.917,100.400 52.400,100.400 52.031 C 100.400 51.154,99.624 50.400,98.720 50.400 C 98.147 50.400,98.000 50.726,98.000 52.000 M129.752 50.981 C 129.442 51.789,129.903 52.400,130.824 52.400 C 131.385 52.400,131.600 52.123,131.600 51.400 C 131.600 50.274,130.150 49.945,129.752 50.981 M208.000 51.800 C 208.000 52.244,207.533 52.400,206.200 52.400 C 204.867 52.400,204.400 52.556,204.400 53.000 C 204.400 53.330,204.130 53.600,203.800 53.600 C 203.470 53.600,203.200 53.870,203.200 54.200 C 203.200 54.530,202.930 54.800,202.600 54.800 C 202.270 54.800,202.000 55.070,202.000 55.400 C 202.000 55.730,201.730 56.000,201.400 56.000 C 201.070 56.000,200.800 56.249,200.800 56.553 C 200.800 56.858,200.440 57.201,200.000 57.316 C 199.417 57.468,199.200 57.862,199.200 58.763 C 199.200 59.596,199.004 60.000,198.600 60.000 C 198.100 60.000,198.000 60.800,198.000 64.800 C 198.000 68.800,198.100 69.600,198.600 69.600 C 199.000 69.600,199.200 70.000,199.200 70.800 C 199.200 71.733,199.378 72.000,200.000 72.000 C 200.533 72.000,200.800 72.267,200.800 72.800 C 200.800 73.244,201.067 73.600,201.400 73.600 C 201.730 73.600,202.000 73.870,202.000 74.200 C 202.000 74.530,202.270 74.800,202.600 74.800 C 202.930 74.800,203.200 75.070,203.200 75.400 C 203.200 75.800,203.600 76.000,204.400 76.000 C 205.200 76.000,205.600 76.200,205.600 76.600 C 205.600 77.000,206.000 77.200,206.800 77.200 C 207.600 77.200,208.000 77.400,208.000 77.800 C 208.000 78.280,208.600 78.400,211.000 78.400 C 213.400 78.400,214.000 78.280,214.000 77.800 C 214.000 77.347,214.489 77.200,216.000 77.200 C 217.511 77.200,218.000 77.053,218.000 76.600 C 218.000 76.200,218.400 76.000,219.200 76.000 C 220.267 76.000,220.400 75.867,220.400 74.800 C 220.400 73.733,220.533 73.600,221.600 73.600 C 222.705 73.600,222.800 73.489,222.800 72.200 C 222.800 71.222,222.981 70.800,223.400 70.800 C 223.867 70.800,224.000 70.267,224.000 68.400 C 224.000 66.533,224.133 66.000,224.600 66.000 C 225.000 66.000,225.200 65.600,225.200 64.800 C 225.200 64.000,225.000 63.600,224.600 63.600 C 224.133 63.600,224.000 63.067,224.000 61.200 C 224.000 59.333,223.867 58.800,223.400 58.800 C 222.981 58.800,222.800 58.378,222.800 57.400 C 222.800 56.422,222.619 56.000,222.200 56.000 C 221.870 56.000,221.600 55.730,221.600 55.400 C 221.600 55.070,221.330 54.800,221.000 54.800 C 220.670 54.800,220.400 54.530,220.400 54.200 C 220.400 53.800,220.000 53.600,219.200 53.600 C 218.400 53.600,218.000 53.400,218.000 53.000 C 218.000 52.547,217.511 52.400,216.000 52.400 C 214.489 52.400,214.000 52.253,214.000 51.800 C 214.000 51.320,213.400 51.200,211.000 51.200 C 208.600 51.200,208.000 51.320,208.000 51.800 M128.552 53.381 C 128.242 54.189,128.703 54.800,129.624 54.800 C 130.185 54.800,130.400 54.523,130.400 53.800 C 130.400 52.674,128.950 52.345,128.552 53.381 M104.667 58.267 C 104.163 58.770,104.400 60.000,105.000 60.000 C 105.330 60.000,105.600 60.270,105.600 60.600 C 105.600 61.033,106.044 61.200,107.200 61.200 C 108.640 61.200,108.800 61.100,108.800 60.200 C 108.800 59.502,108.582 59.200,108.076 59.200 C 107.679 59.200,107.004 58.936,106.576 58.613 C 105.727 57.971,105.080 57.853,104.667 58.267 M122.300 58.881 C 120.175 59.993,120.227 61.200,122.400 61.200 C 123.556 61.200,124.000 61.033,124.000 60.600 C 124.000 60.270,124.283 60.000,124.628 60.000 C 125.451 60.000,125.233 58.230,124.400 58.152 C 124.070 58.121,123.125 58.449,122.300 58.881 M109.478 60.656 C 108.078 62.055,109.136 62.400,114.828 62.400 C 120.435 62.400,120.455 62.397,120.328 61.500 C 120.199 60.592,110.311 59.823,109.478 60.656 M280.800 69.000 C 280.800 69.444,280.333 69.600,279.000 69.600 C 277.667 69.600,277.200 69.756,277.200 70.200 C 277.200 70.530,276.930 70.800,276.600 70.800 C 276.270 70.800,276.000 71.070,276.000 71.400 C 276.000 71.730,275.730 72.000,275.400 72.000 C 275.067 72.000,274.800 72.356,274.800 72.800 C 274.800 73.244,274.533 73.600,274.200 73.600 C 273.800 73.600,273.600 74.000,273.600 74.800 C 273.600 75.600,273.400 76.000,273.000 76.000 C 272.535 76.000,272.400 76.528,272.400 78.353 C 272.400 80.370,272.286 80.737,271.600 80.916 C 271.059 81.057,270.800 81.462,270.800 82.163 C 270.800 82.933,271.006 83.200,271.600 83.200 C 272.281 83.200,272.400 83.467,272.400 85.000 C 272.400 86.333,272.556 86.800,273.000 86.800 C 273.419 86.800,273.600 87.222,273.600 88.200 C 273.600 89.178,273.781 89.600,274.200 89.600 C 274.530 89.600,274.800 89.870,274.800 90.200 C 274.800 90.530,275.070 90.800,275.400 90.800 C 275.730 90.800,276.000 91.070,276.000 91.400 C 276.000 91.730,276.270 92.000,276.600 92.000 C 276.930 92.000,277.200 92.270,277.200 92.600 C 277.200 93.000,277.600 93.200,278.400 93.200 C 279.200 93.200,279.600 93.400,279.600 93.800 C 279.600 94.305,280.489 94.400,285.200 94.400 C 289.911 94.400,290.800 94.305,290.800 93.800 C 290.800 93.400,291.200 93.200,292.000 93.200 C 292.800 93.200,293.200 93.000,293.200 92.600 C 293.200 92.270,293.470 92.000,293.800 92.000 C 294.130 92.000,294.400 91.730,294.400 91.400 C 294.400 91.070,294.670 90.800,295.000 90.800 C 295.330 90.800,295.600 90.530,295.600 90.200 C 295.600 89.870,295.870 89.600,296.200 89.600 C 296.653 89.600,296.800 89.111,296.800 87.600 C 296.800 86.089,296.947 85.600,297.400 85.600 C 297.895 85.600,298.000 84.867,298.000 81.400 C 298.000 77.933,297.895 77.200,297.400 77.200 C 297.000 77.200,296.800 76.800,296.800 76.000 C 296.800 75.200,296.600 74.800,296.200 74.800 C 295.870 74.800,295.600 74.530,295.600 74.200 C 295.600 73.870,295.330 73.600,295.000 73.600 C 294.667 73.600,294.400 73.244,294.400 72.800 C 294.400 72.356,294.133 72.000,293.800 72.000 C 293.470 72.000,293.200 71.730,293.200 71.400 C 293.200 71.070,292.930 70.800,292.600 70.800 C 292.270 70.800,292.000 70.530,292.000 70.200 C 292.000 69.800,291.600 69.600,290.800 69.600 C 290.000 69.600,289.600 69.400,289.600 69.000 C 289.600 68.503,288.844 68.400,285.200 68.400 C 281.556 68.400,280.800 68.503,280.800 69.000 M378.400 74.151 C 378.400 74.941,379.484 75.730,380.195 75.457 C 381.370 75.006,380.919 73.600,379.600 73.600 C 378.847 73.600,378.400 73.805,378.400 74.151 M372.472 75.700 C 372.714 77.402,375.573 77.035,375.594 75.300 C 375.598 74.981,375.011 74.800,373.972 74.800 C 372.513 74.800,372.358 74.893,372.472 75.700 M382.471 75.457 C 382.688 76.559,383.802 77.019,384.969 76.487 C 386.705 75.696,386.281 74.800,384.171 74.800 C 382.688 74.800,382.366 74.925,382.471 75.457 M369.600 76.600 C 369.600 76.930,369.330 77.200,369.000 77.200 C 368.670 77.200,368.400 77.470,368.400 77.800 C 368.400 78.130,368.130 78.400,367.800 78.400 C 367.470 78.400,367.200 78.670,367.200 79.000 C 367.200 79.330,366.930 79.600,366.600 79.600 C 366.270 79.600,366.000 79.870,366.000 80.200 C 366.000 80.530,365.730 80.800,365.400 80.800 C 365.027 80.800,364.800 81.178,364.800 81.800 C 364.800 83.508,366.096 82.980,369.141 80.030 C 372.291 76.979,372.694 76.000,370.800 76.000 C 370.000 76.000,369.600 76.200,369.600 76.600 M387.600 76.635 C 387.600 77.487,394.465 84.326,395.100 84.106 C 395.824 83.856,395.735 82.000,395.000 82.000 C 394.670 82.000,394.400 81.730,394.400 81.400 C 394.400 81.070,394.130 80.800,393.800 80.800 C 393.470 80.800,393.200 80.530,393.200 80.200 C 393.200 79.870,392.930 79.600,392.600 79.600 C 392.270 79.600,392.000 79.330,392.000 79.000 C 392.000 78.670,391.730 78.400,391.400 78.400 C 391.070 78.400,390.800 78.130,390.800 77.800 C 390.800 77.470,390.530 77.200,390.200 77.200 C 389.870 77.200,389.600 76.930,389.600 76.600 C 389.600 76.227,389.222 76.000,388.600 76.000 C 387.953 76.000,387.600 76.224,387.600 76.635 M142.545 77.800 C 142.413 78.142,141.817 78.400,141.157 78.400 C 140.395 78.400,140.000 78.605,140.000 79.000 C 140.000 79.330,139.730 79.600,139.400 79.600 C 139.070 79.600,138.800 79.870,138.800 80.200 C 138.800 80.530,138.530 80.800,138.200 80.800 C 137.870 80.800,137.600 81.070,137.600 81.400 C 137.600 81.730,137.330 82.000,137.000 82.000 C 136.556 82.000,136.400 82.467,136.400 83.800 C 136.400 85.133,136.244 85.600,135.800 85.600 C 135.303 85.600,135.200 86.356,135.200 90.000 C 135.200 93.644,135.303 94.400,135.800 94.400 C 136.200 94.400,136.400 94.800,136.400 95.600 C 136.400 96.400,136.600 96.800,137.000 96.800 C 137.400 96.800,137.600 97.200,137.600 98.000 C 137.600 98.800,137.800 99.200,138.200 99.200 C 138.530 99.200,138.800 99.470,138.800 99.800 C 138.800 100.200,139.200 100.400,140.000 100.400 C 140.800 100.400,141.200 100.600,141.200 101.000 C 141.200 101.419,141.622 101.600,142.600 101.600 C 143.733 101.600,144.000 101.752,144.000 102.400 C 144.000 103.149,144.267 103.200,148.200 103.200 C 152.133 103.200,152.400 103.149,152.400 102.400 C 152.400 101.778,152.667 101.600,153.600 101.600 C 154.400 101.600,154.800 101.400,154.800 101.000 C 154.800 100.581,155.222 100.400,156.200 100.400 C 157.178 100.400,157.600 100.219,157.600 99.800 C 157.600 99.470,157.870 99.200,158.200 99.200 C 158.530 99.200,158.800 98.930,158.800 98.600 C 158.800 98.270,159.070 98.000,159.400 98.000 C 159.800 98.000,160.000 97.600,160.000 96.800 C 160.000 96.000,160.200 95.600,160.600 95.600 C 161.067 95.600,161.200 95.067,161.200 93.200 C 161.200 91.333,161.333 90.800,161.800 90.800 C 162.200 90.800,162.400 90.400,162.400 89.600 C 162.400 88.800,162.200 88.400,161.800 88.400 C 161.328 88.400,161.200 87.844,161.200 85.800 C 161.200 83.756,161.072 83.200,160.600 83.200 C 160.270 83.200,160.000 82.930,160.000 82.600 C 160.000 82.270,159.730 82.000,159.400 82.000 C 159.000 82.000,158.800 81.600,158.800 80.800 C 158.800 79.695,158.689 79.600,157.400 79.600 C 156.422 79.600,156.000 79.419,156.000 79.000 C 156.000 78.670,155.730 78.400,155.400 78.400 C 155.070 78.400,154.800 78.130,154.800 77.800 C 154.800 77.293,153.865 77.200,148.787 77.200 C 143.812 77.200,142.735 77.303,142.545 77.800 M363.600 84.200 C 363.600 85.000,363.800 85.200,364.600 85.200 C 365.665 85.200,365.914 84.474,365.120 83.680 C 364.326 82.886,363.600 83.135,363.600 84.200 M395.280 84.880 C 394.290 85.870,394.972 88.000,396.280 88.000 C 396.630 88.000,396.800 87.410,396.800 86.200 C 396.800 84.354,396.268 83.892,395.280 84.880 M362.400 91.228 C 362.400 96.835,362.403 96.855,363.300 96.728 C 364.352 96.578,364.933 87.324,363.964 86.156 C 362.670 84.597,362.400 85.472,362.400 91.228 M396.243 90.233 C 395.478 92.225,396.107 95.600,397.243 95.600 C 397.918 95.600,398.000 95.277,398.000 92.600 C 398.000 89.601,397.001 88.256,396.243 90.233 M45.272 94.100 C 45.366 94.759,45.668 95.000,46.400 95.000 C 47.132 95.000,47.434 94.759,47.528 94.100 C 47.637 93.331,47.473 93.200,46.400 93.200 C 45.327 93.200,45.163 93.331,45.272 94.100 M40.000 94.920 C 40.000 96.312,42.870 97.037,43.357 95.767 C 43.811 94.584,43.601 94.400,41.800 94.400 C 40.590 94.400,40.000 94.570,40.000 94.920 M50.472 95.300 C 50.577 96.038,50.853 96.200,52.000 96.200 C 53.147 96.200,53.423 96.038,53.528 95.300 C 53.643 94.491,53.488 94.400,52.000 94.400 C 50.512 94.400,50.357 94.491,50.472 95.300 M37.672 96.500 C 37.868 97.881,39.600 97.996,39.600 96.628 C 39.600 95.791,39.409 95.600,38.572 95.600 C 37.735 95.600,37.568 95.767,37.672 96.500 M54.072 96.500 C 54.156 97.091,54.475 97.400,55.000 97.400 C 55.525 97.400,55.844 97.091,55.928 96.500 C 56.033 95.762,55.866 95.600,55.000 95.600 C 54.134 95.600,53.967 95.762,54.072 96.500 M35.200 97.400 C 35.200 97.730,34.930 98.000,34.600 98.000 C 34.270 98.000,34.000 98.270,34.000 98.600 C 34.000 98.930,33.730 99.200,33.400 99.200 C 33.070 99.200,32.800 99.470,32.800 99.800 C 32.800 100.130,32.530 100.400,32.200 100.400 C 31.800 100.400,31.600 100.800,31.600 101.600 C 31.600 103.397,32.525 103.117,35.017 100.565 C 37.420 98.103,37.830 96.800,36.200 96.800 C 35.578 96.800,35.200 97.027,35.200 97.400 M363.600 98.772 C 363.600 99.952,363.765 100.400,364.200 100.400 C 364.530 100.400,364.800 100.670,364.800 101.000 C 364.800 101.815,366.361 101.767,366.678 100.942 C 366.824 100.560,366.667 100.092,366.304 99.826 C 365.959 99.575,365.615 98.926,365.539 98.384 C 365.272 96.495,363.600 96.829,363.600 98.772 M395.311 97.649 C 394.690 98.270,395.128 99.200,396.043 99.200 C 396.584 99.200,396.800 98.914,396.800 98.200 C 396.800 97.151,396.077 96.883,395.311 97.649 M394.111 100.049 C 393.490 100.670,393.928 101.600,394.843 101.600 C 395.384 101.600,395.600 101.314,395.600 100.600 C 395.600 99.551,394.877 99.283,394.111 100.049 M59.680 100.880 C 58.798 101.762,60.364 104.000,61.862 104.000 C 62.604 104.000,62.550 102.032,61.800 101.745 C 61.470 101.618,61.200 101.264,61.200 100.957 C 61.200 100.273,60.331 100.229,59.680 100.880 M30.400 104.200 C 30.400 105.249,31.123 105.517,31.889 104.751 C 32.510 104.130,32.072 103.200,31.157 103.200 C 30.616 103.200,30.400 103.486,30.400 104.200 M367.200 104.600 C 367.200 105.513,367.346 105.636,368.300 105.527 C 369.091 105.436,369.400 105.175,369.400 104.600 C 369.400 104.025,369.091 103.764,368.300 103.673 C 367.346 103.564,367.200 103.687,367.200 104.600 M391.200 104.600 C 391.200 105.400,391.400 105.600,392.200 105.600 C 393.000 105.600,393.200 105.400,393.200 104.600 C 393.200 103.800,393.000 103.600,392.200 103.600 C 391.400 103.600,391.200 103.800,391.200 104.600 M61.761 104.958 C 61.225 106.354,61.784 108.598,62.700 108.728 C 63.541 108.847,63.600 108.709,63.600 106.628 C 63.600 104.398,62.395 103.304,61.761 104.958 M370.080 105.280 C 369.429 105.931,369.473 106.800,370.157 106.800 C 370.464 106.800,370.818 107.070,370.945 107.400 C 371.233 108.152,373.200 108.203,373.200 107.458 C 373.200 106.040,370.915 104.445,370.080 105.280 M29.200 107.200 C 29.200 108.542,29.331 108.800,30.013 108.800 C 30.987 108.800,31.377 107.961,31.036 106.599 C 30.590 104.823,29.200 105.278,29.200 107.200 M387.600 106.972 C 387.600 107.809,387.791 108.000,388.628 108.000 C 389.465 108.000,389.632 107.833,389.528 107.100 C 389.332 105.719,387.600 105.604,387.600 106.972 M373.886 107.448 C 372.987 108.346,373.641 109.200,375.228 109.200 C 376.687 109.200,376.842 109.107,376.728 108.300 C 376.599 107.392,374.554 106.779,373.886 107.448 M384.080 107.680 C 383.092 108.668,383.554 109.200,385.400 109.200 C 386.610 109.200,387.200 109.030,387.200 108.680 C 387.200 107.901,386.347 107.200,385.400 107.200 C 384.938 107.200,384.344 107.416,384.080 107.680 M379.884 108.650 C 379.106 109.427,379.631 110.400,380.828 110.400 C 381.872 110.400,382.037 110.266,381.928 109.500 C 381.802 108.611,380.474 108.059,379.884 108.650 M336.400 112.200 C 336.400 112.600,336.000 112.800,335.200 112.800 C 334.400 112.800,334.000 113.000,334.000 113.400 C 334.000 113.800,333.600 114.000,332.800 114.000 C 332.000 114.000,331.600 114.200,331.600 114.600 C 331.600 114.930,331.330 115.200,331.000 115.200 C 330.581 115.200,330.400 115.622,330.400 116.600 C 330.400 117.578,330.219 118.000,329.800 118.000 C 329.400 118.000,329.200 118.400,329.200 119.200 C 329.200 120.133,329.022 120.400,328.400 120.400 C 327.644 120.400,327.600 120.667,327.600 125.200 C 327.600 129.733,327.644 130.000,328.400 130.000 C 329.048 130.000,329.200 130.267,329.200 131.400 C 329.200 132.378,329.381 132.800,329.800 132.800 C 330.130 132.800,330.400 133.070,330.400 133.400 C 330.400 133.730,330.670 134.000,331.000 134.000 C 331.330 134.000,331.600 134.270,331.600 134.600 C 331.600 134.930,331.870 135.200,332.200 135.200 C 332.530 135.200,332.800 135.470,332.800 135.800 C 332.800 136.130,333.070 136.400,333.400 136.400 C 333.730 136.400,334.000 136.670,334.000 137.000 C 334.000 137.467,334.533 137.600,336.400 137.600 C 338.267 137.600,338.800 137.733,338.800 138.200 C 338.800 138.672,339.356 138.800,341.400 138.800 C 343.444 138.800,344.000 138.672,344.000 138.200 C 344.000 137.756,344.467 137.600,345.800 137.600 C 347.133 137.600,347.600 137.444,347.600 137.000 C 347.600 136.670,347.870 136.400,348.200 136.400 C 348.530 136.400,348.800 136.130,348.800 135.800 C 348.800 135.470,349.070 135.200,349.400 135.200 C 349.730 135.200,350.000 134.930,350.000 134.600 C 350.000 134.270,350.270 134.000,350.600 134.000 C 350.930 134.000,351.200 133.730,351.200 133.400 C 351.200 133.070,351.470 132.800,351.800 132.800 C 352.219 132.800,352.400 132.378,352.400 131.400 C 352.400 130.422,352.581 130.000,353.000 130.000 C 353.504 130.000,353.600 129.133,353.600 124.600 C 353.600 120.067,353.504 119.200,353.000 119.200 C 352.670 119.200,352.400 118.930,352.400 118.600 C 352.400 118.270,352.130 118.000,351.800 118.000 C 351.381 118.000,351.200 117.578,351.200 116.600 C 351.200 115.622,351.019 115.200,350.600 115.200 C 350.270 115.200,350.000 114.930,350.000 114.600 C 350.000 114.200,349.600 114.000,348.800 114.000 C 348.000 114.000,347.600 113.800,347.600 113.400 C 347.600 113.000,347.200 112.800,346.400 112.800 C 345.600 112.800,345.200 112.600,345.200 112.200 C 345.200 111.703,344.444 111.600,340.800 111.600 C 337.156 111.600,336.400 111.703,336.400 112.200 M62.080 113.680 C 60.973 114.787,61.717 118.000,63.080 118.000 C 63.449 118.000,63.600 117.303,63.600 115.600 C 63.600 113.156,63.160 112.600,62.080 113.680 M29.200 117.572 C 29.200 118.688,29.373 119.200,29.751 119.200 C 31.363 119.200,31.687 116.298,30.100 116.072 C 29.293 115.958,29.200 116.113,29.200 117.572 M60.472 119.300 C 60.668 120.681,62.400 120.796,62.400 119.428 C 62.400 118.591,62.209 118.400,61.372 118.400 C 60.535 118.400,60.368 118.567,60.472 119.300 M30.400 120.600 C 30.400 121.222,30.627 121.600,31.000 121.600 C 31.330 121.600,31.600 121.870,31.600 122.200 C 31.600 123.003,33.049 122.970,33.360 122.159 C 33.659 121.381,32.097 119.617,31.100 119.607 C 30.618 119.602,30.400 119.912,30.400 120.600 M57.300 123.080 C 54.879 125.624,54.668 126.400,56.400 126.400 C 57.200 126.400,57.600 126.200,57.600 125.800 C 57.600 125.470,57.870 125.200,58.200 125.200 C 58.530 125.200,58.800 124.930,58.800 124.600 C 58.800 124.270,59.070 124.000,59.400 124.000 C 59.730 124.000,60.000 123.730,60.000 123.400 C 60.000 123.070,60.270 122.800,60.600 122.800 C 60.973 122.800,61.200 122.422,61.200 121.800 C 61.200 120.100,59.653 120.608,57.300 123.080 M34.500 123.465 C 33.793 123.750,33.877 125.200,34.600 125.200 C 34.930 125.200,35.200 125.470,35.200 125.800 C 35.200 126.130,35.470 126.400,35.800 126.400 C 36.130 126.400,36.400 126.670,36.400 127.000 C 36.400 127.373,36.778 127.600,37.400 127.600 C 38.863 127.600,38.663 126.569,36.847 124.753 C 35.993 123.899,35.228 123.214,35.147 123.232 C 35.066 123.249,34.775 123.354,34.500 123.465 M53.249 126.111 C 52.483 126.877,52.751 127.600,53.800 127.600 C 54.514 127.600,54.800 127.384,54.800 126.843 C 54.800 125.928,53.870 125.490,53.249 126.111 M93.200 127.000 C 93.200 127.400,92.800 127.600,92.000 127.600 C 91.200 127.600,90.800 127.800,90.800 128.200 C 90.800 128.530,90.530 128.800,90.200 128.800 C 89.870 128.800,89.600 129.070,89.600 129.400 C 89.600 129.730,89.330 130.000,89.000 130.000 C 88.581 130.000,88.400 130.422,88.400 131.400 C 88.400 132.378,88.219 132.800,87.800 132.800 C 87.400 132.800,87.200 133.200,87.200 134.000 C 87.200 134.800,87.000 135.200,86.600 135.200 C 86.105 135.200,86.000 135.933,86.000 139.400 C 86.000 142.867,86.105 143.600,86.600 143.600 C 87.000 143.600,87.200 144.000,87.200 144.800 C 87.200 145.600,87.400 146.000,87.800 146.000 C 88.219 146.000,88.400 146.422,88.400 147.400 C 88.400 148.378,88.581 148.800,89.000 148.800 C 89.330 148.800,89.600 149.070,89.600 149.400 C 89.600 149.730,89.870 150.000,90.200 150.000 C 90.530 150.000,90.800 150.270,90.800 150.600 C 90.800 151.000,91.200 151.200,92.000 151.200 C 92.800 151.200,93.200 151.400,93.200 151.800 C 93.200 152.305,94.089 152.400,98.800 152.400 C 103.511 152.400,104.400 152.305,104.400 151.800 C 104.400 151.400,104.800 151.200,105.600 151.200 C 106.400 151.200,106.800 151.000,106.800 150.600 C 106.800 150.270,107.070 150.000,107.400 150.000 C 107.730 150.000,108.000 149.730,108.000 149.400 C 108.000 149.070,108.270 148.800,108.600 148.800 C 108.930 148.800,109.200 148.530,109.200 148.200 C 109.200 147.870,109.470 147.600,109.800 147.600 C 110.219 147.600,110.400 147.178,110.400 146.200 C 110.400 145.222,110.581 144.800,111.000 144.800 C 111.504 144.800,111.600 143.933,111.600 139.400 C 111.600 134.867,111.504 134.000,111.000 134.000 C 110.599 134.000,110.400 133.599,110.400 132.787 C 110.400 132.079,110.151 131.479,109.800 131.345 C 109.470 131.218,109.200 130.864,109.200 130.557 C 109.200 130.251,108.930 130.000,108.600 130.000 C 108.270 130.000,108.000 129.730,108.000 129.400 C 108.000 129.070,107.730 128.800,107.400 128.800 C 107.070 128.800,106.800 128.530,106.800 128.200 C 106.800 127.800,106.400 127.600,105.600 127.600 C 104.800 127.600,104.400 127.400,104.400 127.000 C 104.400 126.495,103.511 126.400,98.800 126.400 C 94.089 126.400,93.200 126.495,93.200 127.000 M39.280 127.280 C 38.292 128.268,38.754 128.800,40.600 128.800 C 41.810 128.800,42.400 128.630,42.400 128.280 C 42.400 127.501,41.547 126.800,40.600 126.800 C 40.138 126.800,39.544 127.016,39.280 127.280 M49.486 127.048 C 48.587 127.946,49.241 128.800,50.828 128.800 C 52.287 128.800,52.442 128.707,52.328 127.900 C 52.199 126.992,50.154 126.379,49.486 127.048 M45.700 128.265 C 44.622 128.700,45.147 130.000,46.400 130.000 C 47.658 130.000,47.974 129.334,47.120 128.480 C 46.608 127.968,46.482 127.949,45.700 128.265 M15.672 184.100 C 15.863 185.443,18.937 185.443,19.128 184.100 C 19.245 183.278,19.096 183.200,17.400 183.200 C 15.704 183.200,15.555 183.278,15.672 184.100 M10.400 185.163 C 10.400 186.295,11.678 186.902,13.003 186.399 C 14.693 185.756,14.161 184.627,12.097 184.477 C 10.620 184.370,10.400 184.459,10.400 185.163 M20.800 185.213 C 20.800 186.191,22.296 186.865,23.300 186.339 C 24.714 185.598,24.157 184.400,22.400 184.400 C 21.058 184.400,20.800 184.531,20.800 185.213 M8.000 186.200 C 8.000 186.530,7.717 186.800,7.372 186.800 C 6.510 186.800,6.786 188.551,7.675 188.721 C 8.546 188.886,10.000 187.435,10.000 186.400 C 10.000 185.813,9.733 185.600,9.000 185.600 C 8.378 185.600,8.000 185.827,8.000 186.200 M24.400 186.330 C 24.400 187.183,25.824 188.594,27.064 188.970 C 27.539 189.113,28.146 189.494,28.413 189.815 C 29.159 190.714,30.400 190.552,30.400 189.556 C 30.400 188.337,28.795 186.815,27.500 186.807 C 26.792 186.802,26.400 186.586,26.400 186.200 C 26.400 185.827,26.022 185.600,25.400 185.600 C 24.698 185.600,24.400 185.818,24.400 186.330 M4.400 189.228 C 4.400 190.272,4.534 190.437,5.300 190.328 C 6.715 190.127,6.830 188.000,5.427 188.000 C 4.547 188.000,4.400 188.176,4.400 189.228 M68.516 190.000 C 68.401 190.440,68.058 190.800,67.753 190.800 C 67.449 190.800,67.200 191.070,67.200 191.400 C 67.200 191.800,66.800 192.000,66.000 192.000 C 65.200 192.000,64.800 192.200,64.800 192.600 C 64.800 192.930,64.530 193.200,64.200 193.200 C 63.800 193.200,63.600 193.600,63.600 194.400 C 63.600 195.200,63.400 195.600,63.000 195.600 C 62.556 195.600,62.400 196.067,62.400 197.400 C 62.400 198.733,62.244 199.200,61.800 199.200 C 61.317 199.200,61.200 199.822,61.200 202.400 C 61.200 204.978,61.317 205.600,61.800 205.600 C 62.244 205.600,62.400 206.067,62.400 207.400 C 62.400 208.733,62.556 209.200,63.000 209.200 C 63.330 209.200,63.600 209.470,63.600 209.800 C 63.600 210.130,63.870 210.400,64.200 210.400 C 64.600 210.400,64.800 210.800,64.800 211.600 C 64.800 212.667,64.933 212.800,66.000 212.800 C 66.800 212.800,67.200 213.000,67.200 213.400 C 67.200 213.800,67.600 214.000,68.400 214.000 C 69.200 214.000,69.600 214.200,69.600 214.600 C 69.600 215.101,70.422 215.200,74.600 215.200 C 78.778 215.200,79.600 215.101,79.600 214.600 C 79.600 214.200,80.000 214.000,80.800 214.000 C 81.600 214.000,82.000 213.800,82.000 213.400 C 82.000 213.070,82.270 212.800,82.600 212.800 C 82.930 212.800,83.200 212.530,83.200 212.200 C 83.200 211.870,83.470 211.600,83.800 211.600 C 84.130 211.600,84.400 211.330,84.400 211.000 C 84.400 210.667,84.756 210.400,85.200 210.400 C 85.822 210.400,86.000 210.133,86.000 209.200 C 86.000 208.400,86.200 208.000,86.600 208.000 C 86.995 208.000,87.200 207.605,87.200 206.843 C 87.200 206.183,87.458 205.587,87.800 205.455 C 88.260 205.279,88.400 204.521,88.400 202.213 C 88.400 199.801,88.280 199.200,87.800 199.200 C 87.356 199.200,87.200 198.733,87.200 197.400 C 87.200 196.067,87.044 195.600,86.600 195.600 C 86.270 195.600,86.000 195.330,86.000 195.000 C 86.000 194.667,85.644 194.400,85.200 194.400 C 84.578 194.400,84.400 194.133,84.400 193.200 C 84.400 192.133,84.267 192.000,83.200 192.000 C 82.400 192.000,82.000 191.800,82.000 191.400 C 82.000 191.070,81.730 190.800,81.400 190.800 C 81.067 190.800,80.800 190.444,80.800 190.000 C 80.800 189.235,80.533 189.200,74.763 189.200 C 69.062 189.200,68.713 189.245,68.516 190.000 M2.000 193.000 C 2.000 194.049,2.723 194.317,3.489 193.551 C 4.110 192.930,3.672 192.000,2.757 192.000 C 2.216 192.000,2.000 192.286,2.000 193.000 M30.952 192.581 C 30.642 193.389,31.103 194.000,32.024 194.000 C 32.585 194.000,32.800 193.723,32.800 193.000 C 32.800 191.874,31.350 191.545,30.952 192.581 M0.800 196.000 C 0.800 197.342,0.931 197.600,1.613 197.600 C 2.587 197.600,2.977 196.761,2.636 195.399 C 2.190 193.623,0.800 194.078,0.800 196.000 M32.156 194.971 C 31.712 196.128,32.181 197.397,33.100 197.528 C 33.907 197.642,34.000 197.487,34.000 196.028 C 34.000 194.342,32.686 193.589,32.156 194.971 M0.000 201.800 C 0.000 205.538,0.340 206.406,1.186 204.826 C 1.760 203.754,1.711 199.071,1.120 198.480 C 0.175 197.535,0.000 198.053,0.000 201.800 M33.467 198.267 C 32.990 198.744,33.172 204.612,33.680 205.120 C 34.892 206.332,35.200 205.660,35.200 201.800 C 35.200 198.030,34.707 197.026,33.467 198.267 M0.800 208.772 C 0.800 209.952,0.965 210.400,1.400 210.400 C 1.730 210.400,2.000 210.670,2.000 211.000 C 2.000 211.792,2.964 211.767,3.636 210.957 C 4.086 210.414,4.068 210.239,3.524 209.841 C 3.168 209.581,2.815 208.926,2.739 208.384 C 2.472 206.495,0.800 206.829,0.800 208.772 M32.152 207.781 C 31.842 208.589,32.303 209.200,33.224 209.200 C 33.785 209.200,34.000 208.923,34.000 208.200 C 34.000 207.074,32.550 206.745,32.152 207.781 M30.952 210.181 C 30.642 210.989,31.103 211.600,32.024 211.600 C 32.585 211.600,32.800 211.323,32.800 210.600 C 32.800 209.474,31.350 209.145,30.952 210.181 M3.200 213.000 C 3.200 213.622,3.427 214.000,3.800 214.000 C 4.130 214.000,4.400 214.270,4.400 214.600 C 4.400 214.930,4.670 215.200,5.000 215.200 C 5.330 215.200,5.600 215.470,5.600 215.800 C 5.600 216.173,5.978 216.400,6.600 216.400 C 8.063 216.400,7.863 215.369,6.047 213.553 C 4.231 211.737,3.200 211.537,3.200 213.000 M28.500 213.634 C 26.468 215.578,26.319 216.400,28.000 216.400 C 28.800 216.400,29.200 216.200,29.200 215.800 C 29.200 215.470,29.470 215.200,29.800 215.200 C 30.130 215.200,30.400 214.930,30.400 214.600 C 30.400 214.270,30.670 214.000,31.000 214.000 C 31.373 214.000,31.600 213.622,31.600 213.000 C 31.600 211.512,30.480 211.741,28.500 213.634 M24.849 216.111 C 24.083 216.877,24.351 217.600,25.400 217.600 C 26.114 217.600,26.400 217.384,26.400 216.843 C 26.400 215.928,25.470 215.490,24.849 216.111 M9.697 217.263 C 8.726 218.234,9.142 218.800,10.828 218.800 C 12.287 218.800,12.442 218.707,12.328 217.900 C 12.180 216.861,10.505 216.455,9.697 217.263 M22.267 217.467 C 21.659 218.074,22.059 218.800,23.000 218.800 C 23.733 218.800,24.000 218.587,24.000 218.000 C 24.000 217.220,22.863 216.870,22.267 217.467 M13.275 218.642 C 11.668 219.816,13.033 220.400,17.387 220.400 C 21.624 220.400,22.998 219.711,21.101 218.539 C 20.328 218.061,13.955 218.145,13.275 218.642 M83.200 260.200 C 83.200 260.530,82.930 260.800,82.600 260.800 C 82.270 260.800,82.000 261.070,82.000 261.400 C 82.000 261.800,81.600 262.000,80.800 262.000 C 79.867 262.000,79.600 262.178,79.600 262.800 C 79.600 263.244,79.333 263.600,79.000 263.600 C 78.600 263.600,78.400 264.000,78.400 264.800 C 78.400 265.600,78.200 266.000,77.800 266.000 C 77.356 266.000,77.200 266.467,77.200 267.800 C 77.200 269.133,77.044 269.600,76.600 269.600 C 76.120 269.600,76.000 270.200,76.000 272.600 C 76.000 275.000,76.120 275.600,76.600 275.600 C 77.053 275.600,77.200 276.089,77.200 277.600 C 77.200 279.111,77.347 279.600,77.800 279.600 C 78.130 279.600,78.400 279.870,78.400 280.200 C 78.400 280.530,78.670 280.800,79.000 280.800 C 79.330 280.800,79.600 281.070,79.600 281.400 C 79.600 281.730,79.870 282.000,80.200 282.000 C 80.530 282.000,80.800 282.270,80.800 282.600 C 80.800 282.930,81.070 283.200,81.400 283.200 C 81.730 283.200,82.000 283.470,82.000 283.800 C 82.000 284.200,82.400 284.400,83.200 284.400 C 84.000 284.400,84.400 284.600,84.400 285.000 C 84.400 285.501,85.222 285.600,89.400 285.600 C 93.578 285.600,94.400 285.501,94.400 285.000 C 94.400 284.600,94.800 284.400,95.600 284.400 C 96.400 284.400,96.800 284.200,96.800 283.800 C 96.800 283.400,97.200 283.200,98.000 283.200 C 99.067 283.200,99.200 283.067,99.200 282.000 C 99.200 281.310,99.413 280.797,99.700 280.793 C 100.793 280.778,102.000 278.915,102.000 277.244 C 102.000 276.049,102.164 275.600,102.600 275.600 C 103.080 275.600,103.200 275.000,103.200 272.600 C 103.200 270.200,103.080 269.600,102.600 269.600 C 102.156 269.600,102.000 269.133,102.000 267.800 C 102.000 266.467,101.844 266.000,101.400 266.000 C 101.070 266.000,100.800 265.730,100.800 265.400 C 100.800 265.067,100.444 264.800,100.000 264.800 C 99.556 264.800,99.200 264.533,99.200 264.200 C 99.200 263.870,98.930 263.600,98.600 263.600 C 98.267 263.600,98.000 263.244,98.000 262.800 C 98.000 262.356,97.733 262.000,97.400 262.000 C 97.070 262.000,96.800 261.730,96.800 261.400 C 96.800 261.000,96.400 260.800,95.600 260.800 C 94.800 260.800,94.400 260.600,94.400 260.200 C 94.400 259.695,93.511 259.600,88.800 259.600 C 84.089 259.600,83.200 259.695,83.200 260.200 M30.400 277.753 C 30.400 278.958,31.208 279.187,35.467 279.195 C 39.388 279.201,40.000 279.007,40.000 277.757 C 40.000 276.801,39.996 276.800,35.200 276.800 C 30.409 276.800,30.400 276.802,30.400 277.753 M26.471 279.057 C 26.678 280.108,27.943 280.725,28.405 280.000 C 29.101 278.908,28.836 278.400,27.571 278.400 C 26.645 278.400,26.373 278.562,26.471 279.057 M40.400 278.920 C 40.400 279.688,41.217 280.368,41.849 280.126 C 42.852 279.741,42.503 278.400,41.400 278.400 C 40.846 278.400,40.400 278.632,40.400 278.920 M24.000 280.200 C 24.000 280.530,23.730 280.800,23.400 280.800 C 23.070 280.800,22.800 281.070,22.800 281.400 C 22.800 281.730,22.530 282.000,22.200 282.000 C 21.870 282.000,21.600 282.270,21.600 282.600 C 21.600 282.930,21.330 283.200,21.000 283.200 C 20.670 283.200,20.400 283.470,20.400 283.800 C 20.400 284.130,20.130 284.400,19.800 284.400 C 19.400 284.400,19.200 284.800,19.200 285.600 C 19.200 286.400,19.000 286.800,18.600 286.800 C 18.165 286.800,18.000 287.248,18.000 288.428 C 18.000 290.286,19.669 290.721,19.924 288.929 C 19.992 288.450,20.307 287.843,20.624 287.580 C 20.941 287.317,21.200 286.803,21.200 286.437 C 21.200 286.072,22.385 284.571,23.833 283.101 C 25.281 281.632,26.350 280.243,26.209 280.015 C 25.805 279.360,24.000 279.512,24.000 280.200 M42.800 280.055 C 42.800 280.752,48.643 286.400,49.364 286.400 C 49.776 286.400,50.000 286.047,50.000 285.400 C 50.000 284.778,49.773 284.400,49.400 284.400 C 49.070 284.400,48.800 284.130,48.800 283.800 C 48.800 283.470,48.530 283.200,48.200 283.200 C 47.870 283.200,47.600 282.930,47.600 282.600 C 47.600 282.270,47.330 282.000,47.000 282.000 C 46.670 282.000,46.400 281.730,46.400 281.400 C 46.400 281.070,46.130 280.800,45.800 280.800 C 45.470 280.800,45.200 280.530,45.200 280.200 C 45.200 279.800,44.800 279.600,44.000 279.600 C 43.340 279.600,42.800 279.805,42.800 280.055 M49.467 287.067 C 48.786 287.747,49.231 288.800,50.200 288.800 C 51.000 288.800,51.200 288.600,51.200 287.800 C 51.200 286.831,50.147 286.386,49.467 287.067 M50.880 290.880 C 49.685 292.075,50.352 300.400,51.643 300.400 C 52.345 300.400,52.400 300.039,52.400 295.400 C 52.400 290.312,52.160 289.600,50.880 290.880 M16.800 294.200 C 16.800 296.844,17.216 297.424,18.320 296.320 C 19.454 295.186,18.694 291.600,17.320 291.600 C 16.947 291.600,16.800 292.333,16.800 294.200 M18.000 300.000 C 18.000 301.922,19.390 302.377,19.836 300.601 C 20.177 299.239,19.787 298.400,18.813 298.400 C 18.131 298.400,18.000 298.658,18.000 300.000 M49.467 301.067 C 49.320 301.213,49.200 301.694,49.200 302.135 C 49.200 302.576,48.912 303.255,48.561 303.643 C 48.209 304.032,48.040 304.541,48.184 304.775 C 48.583 305.420,50.000 305.283,50.000 304.600 C 50.000 304.270,50.270 304.000,50.600 304.000 C 51.033 304.000,51.200 303.556,51.200 302.400 C 51.200 300.854,50.341 300.193,49.467 301.067 M19.200 303.000 C 19.200 303.866,19.362 304.033,20.100 303.928 C 20.691 303.844,21.000 303.525,21.000 303.000 C 21.000 302.475,20.691 302.156,20.100 302.072 C 19.362 301.967,19.200 302.134,19.200 303.000 M324.000 304.600 C 324.000 305.000,323.600 305.200,322.800 305.200 C 322.000 305.200,321.600 305.400,321.600 305.800 C 321.600 306.130,321.330 306.400,321.000 306.400 C 320.667 306.400,320.400 306.756,320.400 307.200 C 320.400 307.644,320.133 308.000,319.800 308.000 C 319.470 308.000,319.200 308.270,319.200 308.600 C 319.200 308.930,318.930 309.200,318.600 309.200 C 318.200 309.200,318.000 309.600,318.000 310.400 C 318.000 311.200,317.800 311.600,317.400 311.600 C 316.956 311.600,316.800 312.067,316.800 313.400 C 316.800 314.733,316.644 315.200,316.200 315.200 C 315.756 315.200,315.600 315.667,315.600 317.000 C 315.600 318.333,315.756 318.800,316.200 318.800 C 316.653 318.800,316.800 319.289,316.800 320.800 C 316.800 322.311,316.947 322.800,317.400 322.800 C 317.800 322.800,318.000 323.200,318.000 324.000 C 318.000 324.800,318.200 325.200,318.600 325.200 C 318.930 325.200,319.200 325.470,319.200 325.800 C 319.200 326.130,319.470 326.400,319.800 326.400 C 320.130 326.400,320.400 326.670,320.400 327.000 C 320.400 327.330,320.670 327.600,321.000 327.600 C 321.330 327.600,321.600 327.870,321.600 328.200 C 321.600 328.600,322.000 328.800,322.800 328.800 C 323.600 328.800,324.000 329.000,324.000 329.400 C 324.000 329.901,324.822 330.000,329.000 330.000 C 333.178 330.000,334.000 329.901,334.000 329.400 C 334.000 329.000,334.400 328.800,335.200 328.800 C 336.000 328.800,336.400 328.600,336.400 328.200 C 336.400 327.800,336.800 327.600,337.600 327.600 C 338.667 327.600,338.800 327.467,338.800 326.400 C 338.800 325.600,339.000 325.200,339.400 325.200 C 339.730 325.200,340.000 324.930,340.000 324.600 C 340.000 324.270,340.270 324.000,340.600 324.000 C 341.019 324.000,341.200 323.578,341.200 322.600 C 341.200 321.622,341.381 321.200,341.800 321.200 C 342.300 321.200,342.400 320.400,342.400 316.400 C 342.400 312.400,342.300 311.600,341.800 311.600 C 341.470 311.600,341.200 311.330,341.200 311.000 C 341.200 310.670,340.930 310.400,340.600 310.400 C 340.200 310.400,340.000 310.000,340.000 309.200 C 340.000 308.400,339.800 308.000,339.400 308.000 C 339.067 308.000,338.800 307.644,338.800 307.200 C 338.800 306.756,338.533 306.400,338.200 306.400 C 337.870 306.400,337.600 306.130,337.600 305.800 C 337.600 305.400,337.200 305.200,336.400 305.200 C 335.600 305.200,335.200 305.000,335.200 304.600 C 335.200 304.095,334.311 304.000,329.600 304.000 C 324.889 304.000,324.000 304.095,324.000 304.600 M20.400 305.400 C 20.400 306.022,20.627 306.400,21.000 306.400 C 21.333 306.400,21.600 306.756,21.600 307.200 C 21.600 307.644,21.867 308.000,22.200 308.000 C 22.530 308.000,22.800 308.270,22.800 308.600 C 22.800 308.930,23.070 309.200,23.400 309.200 C 23.730 309.200,24.000 309.470,24.000 309.800 C 24.000 310.597,25.950 310.597,26.255 309.800 C 26.522 309.106,21.933 304.400,20.990 304.400 C 20.627 304.400,20.400 304.785,20.400 305.400 M47.300 305.865 C 46.303 306.267,46.709 308.000,47.800 308.000 C 48.644 308.000,48.800 307.813,48.800 306.800 C 48.800 305.638,48.431 305.409,47.300 305.865 M42.500 309.478 C 41.255 310.929,41.350 311.600,42.800 311.600 C 43.600 311.600,44.000 311.400,44.000 311.000 C 44.000 310.670,44.283 310.400,44.628 310.400 C 45.050 310.400,45.214 310.105,45.128 309.500 C 44.946 308.222,43.587 308.211,42.500 309.478 M26.880 310.080 C 26.026 310.934,26.342 311.600,27.600 311.600 C 28.821 311.600,28.990 311.359,28.557 310.233 C 28.268 309.480,27.545 309.415,26.880 310.080 M29.477 311.056 C 28.055 312.479,29.115 312.800,35.228 312.800 C 41.250 312.800,41.256 312.799,41.128 311.900 C 40.999 310.993,30.314 310.219,29.477 311.056 M130.400 315.800 C 130.400 316.201,129.999 316.400,129.187 316.400 C 128.479 316.400,127.879 316.649,127.745 317.000 C 127.613 317.342,127.017 317.600,126.357 317.600 C 125.595 317.600,125.200 317.805,125.200 318.200 C 125.200 318.530,124.930 318.800,124.600 318.800 C 124.270 318.800,124.000 319.070,124.000 319.400 C 124.000 319.730,123.730 320.000,123.400 320.000 C 122.981 320.000,122.800 320.422,122.800 321.400 C 122.800 322.378,122.619 322.800,122.200 322.800 C 121.696 322.800,121.600 323.667,121.600 328.200 C 121.600 332.733,121.696 333.600,122.200 333.600 C 122.600 333.600,122.800 334.000,122.800 334.800 C 122.800 335.600,123.000 336.000,123.400 336.000 C 123.730 336.000,124.000 336.276,124.000 336.613 C 124.000 336.949,124.270 337.329,124.600 337.455 C 124.930 337.582,125.200 337.936,125.200 338.243 C 125.200 338.549,125.470 338.800,125.800 338.800 C 126.130 338.800,126.400 339.070,126.400 339.400 C 126.400 339.819,126.822 340.000,127.800 340.000 C 128.778 340.000,129.200 340.181,129.200 340.600 C 129.200 341.000,129.600 341.200,130.400 341.200 C 131.200 341.200,131.600 341.400,131.600 341.800 C 131.600 342.280,132.200 342.400,134.600 342.400 C 137.000 342.400,137.600 342.280,137.600 341.800 C 137.600 341.356,138.067 341.200,139.400 341.200 C 140.733 341.200,141.200 341.044,141.200 340.600 C 141.200 340.270,141.470 340.000,141.800 340.000 C 142.130 340.000,142.400 339.730,142.400 339.400 C 142.400 339.070,142.625 338.797,142.900 338.793 C 143.510 338.785,145.200 337.058,145.200 336.444 C 145.200 336.200,145.470 336.000,145.800 336.000 C 146.200 336.000,146.400 335.600,146.400 334.800 C 146.400 334.000,146.600 333.600,147.000 333.600 C 147.500 333.600,147.600 332.800,147.600 328.800 C 147.600 324.800,147.500 324.000,147.000 324.000 C 146.619 324.000,146.400 323.617,146.400 322.953 C 146.400 321.888,143.758 318.800,142.847 318.800 C 142.601 318.800,142.400 318.530,142.400 318.200 C 142.400 317.870,142.130 317.600,141.800 317.600 C 141.470 317.600,141.200 317.330,141.200 317.000 C 141.200 316.556,140.733 316.400,139.400 316.400 C 138.067 316.400,137.600 316.244,137.600 315.800 C 137.600 315.311,136.933 315.200,134.000 315.200 C 131.067 315.200,130.400 315.311,130.400 315.800 M359.067 336.267 C 358.013 337.320,359.558 338.721,361.200 338.200 C 362.673 337.732,362.253 336.000,360.667 336.000 C 359.933 336.000,359.213 336.120,359.067 336.267 M366.400 336.720 C 366.400 338.155,368.292 338.877,370.167 338.157 C 371.938 337.478,370.864 336.000,368.600 336.000 C 366.748 336.000,366.400 336.114,366.400 336.720 M261.200 338.200 C 261.200 338.600,260.800 338.800,260.000 338.800 C 259.200 338.800,258.800 339.000,258.800 339.400 C 258.800 339.730,258.530 340.000,258.200 340.000 C 257.870 340.000,257.600 340.270,257.600 340.600 C 257.600 340.933,257.244 341.200,256.800 341.200 C 256.356 341.200,256.000 341.467,256.000 341.800 C 256.000 342.130,255.730 342.400,255.400 342.400 C 255.000 342.400,254.800 342.800,254.800 343.600 C 254.800 344.400,254.600 344.800,254.200 344.800 C 253.695 344.800,253.600 345.689,253.600 350.400 C 253.600 355.111,253.695 356.000,254.200 356.000 C 254.600 356.000,254.800 356.400,254.800 357.200 C 254.800 358.000,255.000 358.400,255.400 358.400 C 255.730 358.400,256.000 358.670,256.000 359.000 C 256.000 359.333,256.356 359.600,256.800 359.600 C 257.244 359.600,257.600 359.867,257.600 360.200 C 257.600 360.530,257.870 360.800,258.200 360.800 C 258.530 360.800,258.800 361.070,258.800 361.400 C 258.800 361.800,259.200 362.000,260.000 362.000 C 260.800 362.000,261.200 362.200,261.200 362.600 C 261.200 363.105,262.089 363.200,266.800 363.200 C 271.511 363.200,272.400 363.105,272.400 362.600 C 272.400 362.200,272.800 362.000,273.600 362.000 C 274.400 362.000,274.800 361.800,274.800 361.400 C 274.800 361.070,275.070 360.800,275.400 360.800 C 275.730 360.800,276.000 360.530,276.000 360.200 C 276.000 359.870,276.270 359.600,276.600 359.600 C 276.930 359.600,277.200 359.330,277.200 359.000 C 277.200 358.670,277.470 358.400,277.800 358.400 C 278.200 358.400,278.400 358.000,278.400 357.200 C 278.400 356.400,278.600 356.000,279.000 356.000 C 279.505 356.000,279.600 355.111,279.600 350.400 C 279.600 345.689,279.505 344.800,279.000 344.800 C 278.600 344.800,278.400 344.400,278.400 343.600 C 278.400 342.800,278.200 342.400,277.800 342.400 C 277.470 342.400,277.200 342.130,277.200 341.800 C 277.200 341.470,276.930 341.200,276.600 341.200 C 276.270 341.200,276.000 340.930,276.000 340.600 C 276.000 340.270,275.730 340.000,275.400 340.000 C 275.070 340.000,274.800 339.730,274.800 339.400 C 274.800 339.000,274.400 338.800,273.600 338.800 C 272.800 338.800,272.400 338.600,272.400 338.200 C 272.400 337.695,271.511 337.600,266.800 337.600 C 262.089 337.600,261.200 337.695,261.200 338.200 M354.800 338.120 C 354.800 338.899,355.653 339.600,356.600 339.600 C 357.547 339.600,358.400 338.899,358.400 338.120 C 358.400 337.770,357.810 337.600,356.600 337.600 C 355.390 337.600,354.800 337.770,354.800 338.120 M371.200 338.101 C 371.200 339.127,373.564 340.928,374.208 340.393 C 374.975 339.757,374.970 338.800,374.200 338.800 C 373.870 338.800,373.600 338.530,373.600 338.200 C 373.600 337.800,373.200 337.600,372.400 337.600 C 371.705 337.600,371.200 337.811,371.200 338.101 M351.200 340.600 C 351.200 340.930,350.930 341.200,350.600 341.200 C 350.270 341.200,350.000 341.470,350.000 341.800 C 350.000 342.130,349.730 342.400,349.400 342.400 C 349.027 342.400,348.800 342.778,348.800 343.400 C 348.800 344.867,350.036 344.684,351.760 342.960 C 353.484 341.236,353.667 340.000,352.200 340.000 C 351.578 340.000,351.200 340.227,351.200 340.600 M193.200 341.800 C 193.200 342.244,192.733 342.400,191.400 342.400 C 190.067 342.400,189.600 342.556,189.600 343.000 C 189.600 343.400,189.200 343.600,188.400 343.600 C 187.600 343.600,187.200 343.800,187.200 344.200 C 187.200 344.530,186.930 344.800,186.600 344.800 C 186.200 344.800,186.000 345.200,186.000 346.000 C 186.000 346.811,185.801 347.200,185.387 347.200 C 185.051 347.200,184.671 347.470,184.545 347.800 C 184.418 348.130,184.064 348.400,183.757 348.400 C 183.307 348.400,183.200 349.480,183.200 354.000 C 183.200 358.711,183.295 359.600,183.800 359.600 C 184.200 359.600,184.400 360.000,184.400 360.800 C 184.400 361.733,184.578 362.000,185.200 362.000 C 185.644 362.000,186.000 362.267,186.000 362.600 C 186.000 362.930,186.270 363.200,186.600 363.200 C 186.930 363.200,187.200 363.470,187.200 363.800 C 187.200 364.130,187.470 364.400,187.800 364.400 C 188.130 364.400,188.400 364.670,188.400 365.000 C 188.400 365.400,188.800 365.600,189.600 365.600 C 190.533 365.600,190.800 365.778,190.800 366.400 C 190.800 367.022,191.067 367.200,192.000 367.200 C 192.800 367.200,193.200 367.400,193.200 367.800 C 193.200 368.280,193.800 368.400,196.200 368.400 C 198.600 368.400,199.200 368.280,199.200 367.800 C 199.200 367.347,199.689 367.200,201.200 367.200 C 202.933 367.200,203.200 367.093,203.200 366.400 C 203.200 365.956,203.467 365.600,203.800 365.600 C 204.130 365.600,204.400 365.330,204.400 365.000 C 204.400 364.600,204.800 364.400,205.600 364.400 C 206.667 364.400,206.800 364.267,206.800 363.200 C 206.800 362.400,207.000 362.000,207.400 362.000 C 207.800 362.000,208.000 361.600,208.000 360.800 C 208.000 360.000,208.200 359.600,208.600 359.600 C 209.105 359.600,209.200 358.711,209.200 354.000 C 209.200 349.289,209.105 348.400,208.600 348.400 C 208.270 348.400,208.000 348.130,208.000 347.800 C 208.000 347.470,207.730 347.200,207.400 347.200 C 207.000 347.200,206.800 346.800,206.800 346.000 C 206.800 344.933,206.667 344.800,205.600 344.800 C 204.800 344.800,204.400 344.600,204.400 344.200 C 204.400 343.870,204.130 343.600,203.800 343.600 C 203.470 343.600,203.200 343.330,203.200 343.000 C 203.200 342.547,202.711 342.400,201.200 342.400 C 199.689 342.400,199.200 342.253,199.200 341.800 C 199.200 341.320,198.600 341.200,196.200 341.200 C 193.800 341.200,193.200 341.320,193.200 341.800 M377.841 344.236 C 377.514 345.090,377.881 345.600,378.824 345.600 C 379.385 345.600,379.600 345.323,379.600 344.600 C 379.600 343.447,378.251 343.168,377.841 344.236 M347.600 345.800 C 347.600 346.666,347.762 346.833,348.500 346.728 C 349.091 346.644,349.400 346.325,349.400 345.800 C 349.400 345.275,349.091 344.956,348.500 344.872 C 347.762 344.767,347.600 344.934,347.600 345.800 M379.218 346.578 C 378.463 347.488,378.862 348.980,379.900 349.128 C 380.707 349.242,380.800 349.087,380.800 347.628 C 380.800 345.908,380.138 345.469,379.218 346.578 M346.400 348.776 C 346.400 350.522,346.929 351.123,347.818 350.385 C 348.928 349.463,348.291 347.200,346.920 347.200 C 346.581 347.200,346.400 347.750,346.400 348.776 M92.442 351.166 C 91.785 351.582,92.115 352.716,92.992 353.052 C 94.041 353.455,95.600 352.847,95.600 352.035 C 95.600 350.913,93.677 350.383,92.442 351.166 M380.449 351.311 C 379.856 351.904,379.875 353.715,380.480 354.320 C 381.460 355.300,382.000 354.846,382.000 353.043 C 382.000 351.222,381.309 350.451,380.449 351.311 M87.272 353.300 C 87.377 354.038,87.653 354.200,88.800 354.200 C 89.947 354.200,90.223 354.038,90.328 353.300 C 90.443 352.491,90.288 352.400,88.800 352.400 C 87.312 352.400,87.157 352.491,87.272 353.300 M97.200 352.920 C 97.200 353.840,98.122 354.400,99.637 354.400 C 100.581 354.400,101.198 354.617,101.345 355.000 C 101.471 355.330,101.937 355.600,102.380 355.600 C 102.852 355.600,104.403 356.839,106.136 358.600 C 109.251 361.766,110.400 362.305,110.400 360.600 C 110.400 359.978,110.173 359.600,109.800 359.600 C 109.470 359.600,109.200 359.330,109.200 359.000 C 109.200 358.670,108.930 358.400,108.600 358.400 C 108.270 358.400,108.000 358.130,108.000 357.800 C 108.000 357.470,107.730 357.200,107.400 357.200 C 107.070 357.200,106.800 356.930,106.800 356.600 C 106.800 356.270,106.530 356.000,106.200 356.000 C 105.870 356.000,105.600 355.730,105.600 355.400 C 105.600 355.070,105.330 354.800,105.000 354.800 C 104.670 354.800,104.400 354.530,104.400 354.200 C 104.400 353.800,104.000 353.600,103.200 353.600 C 102.400 353.600,102.000 353.400,102.000 353.000 C 102.000 352.533,101.467 352.400,99.600 352.400 C 97.897 352.400,97.200 352.551,97.200 352.920 M84.400 354.200 C 84.400 354.530,84.130 354.800,83.800 354.800 C 83.470 354.800,83.200 355.070,83.200 355.400 C 83.200 355.730,82.930 356.000,82.600 356.000 C 82.270 356.000,82.000 356.270,82.000 356.600 C 82.000 356.930,81.730 357.200,81.400 357.200 C 81.070 357.200,80.800 357.470,80.800 357.800 C 80.800 358.130,80.530 358.400,80.200 358.400 C 79.827 358.400,79.600 358.778,79.600 359.400 C 79.600 361.127,80.923 360.570,83.947 357.570 C 87.097 354.445,87.449 353.600,85.600 353.600 C 84.800 353.600,84.400 353.800,84.400 354.200 M346.400 358.600 C 346.400 360.710,346.458 360.847,347.300 360.728 C 348.096 360.615,348.200 360.370,348.200 358.600 C 348.200 356.830,348.096 356.585,347.300 356.472 C 346.458 356.353,346.400 356.490,346.400 358.600 M379.022 357.964 C 378.631 358.598,379.256 359.600,380.043 359.600 C 380.584 359.600,380.800 359.314,380.800 358.600 C 380.800 357.592,379.533 357.138,379.022 357.964 M377.752 360.581 C 377.442 361.389,377.903 362.000,378.824 362.000 C 379.385 362.000,379.600 361.723,379.600 361.000 C 379.600 359.874,378.150 359.545,377.752 360.581 M78.400 361.800 C 78.400 362.600,78.600 362.800,79.400 362.800 C 80.428 362.800,80.578 362.530,80.157 361.433 C 79.748 360.368,78.400 360.649,78.400 361.800 M347.600 362.200 C 347.600 362.822,347.827 363.200,348.200 363.200 C 348.530 363.200,348.800 363.470,348.800 363.800 C 348.800 364.556,350.350 364.596,350.637 363.847 C 350.902 363.158,349.139 361.200,348.254 361.200 C 347.823 361.200,347.600 361.541,347.600 362.200 M110.080 362.480 C 109.090 363.470,109.772 365.600,111.080 365.600 C 111.430 365.600,111.600 365.010,111.600 363.800 C 111.600 361.954,111.068 361.492,110.080 362.480 M375.100 364.547 C 372.555 366.909,372.052 368.400,373.800 368.400 C 374.422 368.400,374.800 368.173,374.800 367.800 C 374.800 367.470,375.070 367.200,375.400 367.200 C 375.733 367.200,376.000 366.844,376.000 366.400 C 376.000 365.956,376.267 365.600,376.600 365.600 C 376.930 365.600,377.200 365.330,377.200 365.000 C 377.200 364.670,377.470 364.400,377.800 364.400 C 378.173 364.400,378.400 364.022,378.400 363.400 C 378.400 361.916,377.655 362.175,375.100 364.547 M77.200 365.628 C 77.200 367.917,77.251 368.048,78.100 367.928 C 79.178 367.775,79.693 364.159,78.724 363.545 C 77.502 362.770,77.200 363.183,77.200 365.628 M351.467 365.467 C 350.963 365.970,351.200 367.200,351.800 367.200 C 352.130 367.200,352.400 367.470,352.400 367.800 C 352.400 368.130,352.670 368.400,353.000 368.400 C 353.330 368.400,353.600 368.670,353.600 369.000 C 353.600 369.400,354.000 369.600,354.800 369.600 C 355.600 369.600,356.000 369.800,356.000 370.200 C 356.000 370.667,356.536 370.800,358.428 370.800 C 361.515 370.800,362.015 369.115,359.000 368.870 C 358.120 368.799,357.256 368.484,357.080 368.170 C 356.904 367.857,356.356 367.600,355.861 367.600 C 355.353 367.600,354.536 367.086,353.981 366.417 C 353.040 365.282,352.032 364.901,351.467 365.467 M111.043 366.633 C 110.223 368.770,110.897 373.200,112.043 373.200 C 112.730 373.200,112.800 372.866,112.800 369.600 C 112.800 366.025,111.875 364.463,111.043 366.633 M370.400 368.600 C 370.400 369.400,370.600 369.600,371.400 369.600 C 372.551 369.600,372.832 368.252,371.767 367.843 C 370.670 367.422,370.400 367.572,370.400 368.600 M77.200 371.600 C 77.200 374.333,77.239 374.450,78.100 374.328 C 78.928 374.210,79.000 373.992,79.000 371.600 C 79.000 369.208,78.928 368.990,78.100 368.872 C 77.239 368.750,77.200 368.867,77.200 371.600 M366.686 369.048 C 365.787 369.946,366.441 370.800,368.028 370.800 C 369.487 370.800,369.642 370.707,369.528 369.900 C 369.399 368.992,367.354 368.379,366.686 369.048 M362.684 370.250 C 361.906 371.027,362.431 372.000,363.628 372.000 C 364.672 372.000,364.837 371.866,364.728 371.100 C 364.602 370.211,363.274 369.659,362.684 370.250 M78.400 375.800 C 78.400 376.666,78.562 376.833,79.300 376.728 C 79.891 376.644,80.200 376.325,80.200 375.800 C 80.200 375.275,79.891 374.956,79.300 374.872 C 78.562 374.767,78.400 374.934,78.400 375.800 M110.111 375.249 C 109.490 375.870,109.928 376.800,110.843 376.800 C 111.384 376.800,111.600 376.514,111.600 375.800 C 111.600 374.751,110.877 374.483,110.111 375.249 M79.600 378.200 C 79.600 379.066,79.762 379.233,80.500 379.128 C 81.091 379.044,81.400 378.725,81.400 378.200 C 81.400 377.675,81.091 377.356,80.500 377.272 C 79.762 377.167,79.600 377.334,79.600 378.200 M108.911 377.649 C 108.290 378.270,108.728 379.200,109.643 379.200 C 110.184 379.200,110.400 378.914,110.400 378.200 C 110.400 377.151,109.677 376.883,108.911 377.649 M106.479 381.262 C 104.541 383.181,104.277 384.400,105.800 384.400 C 106.422 384.400,106.800 384.173,106.800 383.800 C 106.800 383.470,107.070 383.200,107.400 383.200 C 107.730 383.200,108.000 382.930,108.000 382.600 C 108.000 382.270,108.270 382.000,108.600 382.000 C 109.000 382.000,109.200 381.600,109.200 380.800 C 109.200 379.155,108.485 379.277,106.479 381.262 M82.267 381.067 C 82.120 381.213,82.000 381.753,82.000 382.267 C 82.000 383.363,83.859 383.633,84.257 382.595 C 84.672 381.515,83.058 380.275,82.267 381.067 M84.815 382.982 C 84.258 383.653,84.580 384.400,85.424 384.400 C 85.741 384.400,86.000 384.670,86.000 385.000 C 86.000 385.373,86.378 385.600,87.000 385.600 C 88.299 385.600,88.316 384.513,87.037 383.300 C 85.928 382.249,85.477 382.184,84.815 382.982 M102.680 383.853 C 101.977 384.556,102.424 385.600,103.428 385.600 C 104.264 385.600,104.432 385.433,104.328 384.704 C 104.201 383.817,103.222 383.311,102.680 383.853 M278.472 385.300 C 278.580 386.062,278.845 386.200,280.200 386.200 C 281.555 386.200,281.820 386.062,281.928 385.300 C 282.045 384.478,281.896 384.400,280.200 384.400 C 278.504 384.400,278.355 384.478,278.472 385.300 M88.686 385.048 C 87.787 385.946,88.441 386.800,90.028 386.800 C 91.487 386.800,91.642 386.707,91.528 385.900 C 91.399 384.992,89.354 384.379,88.686 385.048 M97.443 385.433 C 96.977 386.648,97.217 386.800,99.600 386.800 C 100.920 386.800,102.000 386.635,102.000 386.433 C 102.000 385.182,101.438 384.800,99.600 384.800 C 98.223 384.800,97.617 384.978,97.443 385.433 M273.672 386.500 C 273.777 387.238,274.053 387.400,275.200 387.400 C 276.347 387.400,276.623 387.238,276.728 386.500 C 276.843 385.691,276.688 385.600,275.200 385.600 C 273.712 385.600,273.557 385.691,273.672 386.500 M283.600 386.120 C 283.600 387.582,287.634 388.332,288.157 386.967 C 288.623 385.752,288.383 385.600,286.000 385.600 C 284.297 385.600,283.600 385.751,283.600 386.120 M270.945 387.400 C 270.818 387.730,270.450 388.000,270.128 388.000 C 269.386 388.000,269.591 389.183,270.425 389.708 C 271.166 390.174,273.200 388.522,273.200 387.454 C 273.200 386.609,271.266 386.563,270.945 387.400 M288.813 387.700 C 288.827 388.741,290.569 390.174,291.421 389.847 C 292.189 389.553,292.171 388.000,291.400 388.000 C 291.070 388.000,290.800 387.730,290.800 387.400 C 290.800 387.027,290.422 386.800,289.800 386.800 C 289.026 386.800,288.803 387.003,288.813 387.700 M267.200 390.200 C 267.200 391.113,267.346 391.236,268.300 391.127 C 269.091 391.036,269.400 390.775,269.400 390.200 C 269.400 389.625,269.091 389.364,268.300 389.273 C 267.346 389.164,267.200 389.287,267.200 390.200 M179.600 391.186 C 179.600 392.528,186.172 393.330,187.984 392.210 C 189.832 391.068,188.362 390.400,184.000 390.400 C 179.893 390.400,179.600 390.452,179.600 391.186 M292.790 391.012 C 292.369 391.519,292.441 391.792,293.211 392.612 C 294.447 393.927,295.600 393.921,295.600 392.600 C 295.600 391.978,295.373 391.600,295.000 391.600 C 294.670 391.600,294.400 391.330,294.400 391.000 C 294.400 390.221,293.441 390.228,292.790 391.012 M174.800 392.200 C 174.800 392.530,174.530 392.800,174.200 392.800 C 173.827 392.800,173.600 393.178,173.600 393.800 C 173.600 395.017,174.042 395.045,176.274 393.964 C 178.621 392.828,178.687 391.600,176.400 391.600 C 175.244 391.600,174.800 391.767,174.800 392.200 M188.800 392.553 C 188.800 393.614,190.228 394.152,191.362 393.517 C 192.710 392.763,192.126 391.600,190.400 391.600 C 188.981 391.600,188.800 391.708,188.800 392.553 M192.400 393.626 C 192.400 394.520,196.603 398.800,197.481 398.800 C 197.768 398.800,198.000 398.353,198.000 397.800 C 198.000 397.178,197.773 396.800,197.400 396.800 C 197.070 396.800,196.800 396.530,196.800 396.200 C 196.800 395.870,196.530 395.600,196.200 395.600 C 195.867 395.600,195.600 395.244,195.600 394.800 C 195.600 394.356,195.333 394.000,195.000 394.000 C 194.670 394.000,194.400 393.730,194.400 393.400 C 194.400 393.027,194.022 392.800,193.400 392.800 C 192.656 392.800,192.400 393.012,192.400 393.626 M264.800 393.371 C 264.800 393.717,264.530 394.000,264.200 394.000 C 263.754 394.000,263.600 394.470,263.600 395.828 C 263.600 397.943,265.253 398.444,265.539 396.416 C 265.615 395.874,265.975 395.210,266.339 394.939 C 266.857 394.553,266.904 394.291,266.557 393.723 C 265.981 392.783,264.800 392.546,264.800 393.371 M170.916 394.800 C 170.801 395.240,170.458 395.600,170.153 395.600 C 169.849 395.600,169.600 395.870,169.600 396.200 C 169.600 396.530,169.330 396.800,169.000 396.800 C 168.627 396.800,168.400 397.178,168.400 397.800 C 168.400 399.361,169.794 399.057,171.611 397.100 C 173.482 395.086,173.675 394.000,172.163 394.000 C 171.462 394.000,171.057 394.259,170.916 394.800 M295.233 394.739 C 294.961 395.247,294.981 395.621,295.299 395.939 C 296.135 396.775,296.800 396.448,296.800 395.200 C 296.800 393.828,295.867 393.553,295.233 394.739 M296.163 397.805 C 295.891 398.890,296.541 400.000,297.449 400.000 C 297.825 400.000,298.000 399.492,298.000 398.400 C 298.000 396.474,296.610 396.024,296.163 397.805 M262.400 402.200 C 262.400 406.384,262.415 406.454,263.300 406.328 C 264.165 406.205,264.200 406.044,264.200 402.200 C 264.200 398.356,264.165 398.195,263.300 398.072 C 262.415 397.946,262.400 398.016,262.400 402.200 M167.200 400.200 C 167.200 401.066,167.362 401.233,168.100 401.128 C 168.691 401.044,169.000 400.725,169.000 400.200 C 169.000 399.675,168.691 399.356,168.100 399.272 C 167.362 399.167,167.200 399.334,167.200 400.200 M197.752 399.781 C 197.629 400.101,197.815 400.771,198.164 401.270 C 198.514 401.770,198.800 402.498,198.800 402.889 C 198.800 403.381,199.108 403.600,199.800 403.600 C 200.700 403.600,200.800 403.440,200.800 402.000 C 200.800 400.667,200.667 400.400,200.000 400.400 C 199.556 400.400,199.200 400.133,199.200 399.800 C 199.200 399.030,198.046 399.016,197.752 399.781 M166.000 403.172 C 166.000 404.652,166.093 404.800,167.024 404.800 C 168.468 404.800,168.352 401.878,166.900 401.672 C 166.093 401.558,166.000 401.713,166.000 403.172 M296.480 404.880 C 295.459 405.901,296.023 408.800,297.243 408.800 C 297.894 408.800,298.000 408.492,298.000 406.600 C 298.000 404.356,297.533 403.827,296.480 404.880 M200.022 405.959 C 199.029 407.815,200.049 411.974,201.373 411.466 C 202.426 411.062,202.277 405.200,201.214 405.200 C 200.782 405.200,200.245 405.542,200.022 405.959 M164.800 407.600 C 164.800 408.673,164.931 408.837,165.700 408.728 C 166.359 408.634,166.600 408.332,166.600 407.600 C 166.600 406.868,166.359 406.566,165.700 406.472 C 164.931 406.363,164.800 406.527,164.800 407.600 M263.600 409.400 C 263.600 410.465,264.326 410.714,265.120 409.920 C 265.914 409.126,265.665 408.400,264.600 408.400 C 263.800 408.400,263.600 408.600,263.600 409.400 M294.614 410.386 C 293.664 411.377,293.561 411.671,293.988 412.186 C 294.640 412.971,295.600 412.980,295.600 412.200 C 295.600 411.870,295.870 411.600,296.200 411.600 C 296.600 411.600,296.800 411.200,296.800 410.400 C 296.800 408.863,296.077 408.858,294.614 410.386 M264.800 411.800 C 264.800 412.422,265.027 412.800,265.400 412.800 C 265.730 412.800,266.000 413.083,266.000 413.428 C 266.000 414.290,267.751 414.014,267.921 413.125 C 268.086 412.254,266.635 410.800,265.600 410.800 C 265.013 410.800,264.800 411.067,264.800 411.800 M166.000 413.600 C 166.000 415.326,167.163 415.910,167.917 414.562 C 168.552 413.428,168.014 412.000,166.953 412.000 C 166.108 412.000,166.000 412.181,166.000 413.600 M198.800 413.946 C 198.800 414.356,198.440 415.150,198.000 415.709 C 197.560 416.269,197.197 416.968,197.193 417.263 C 197.190 417.558,196.380 418.579,195.393 419.532 C 193.363 421.492,193.112 422.400,194.600 422.400 C 195.222 422.400,195.600 422.173,195.600 421.800 C 195.600 421.470,195.870 421.200,196.200 421.200 C 196.530 421.200,196.800 420.930,196.800 420.600 C 196.800 420.270,197.070 420.000,197.400 420.000 C 197.730 420.000,198.000 419.730,198.000 419.400 C 198.000 419.070,198.270 418.800,198.600 418.800 C 199.000 418.800,199.200 418.400,199.200 417.600 C 199.200 416.667,199.378 416.400,200.000 416.400 C 200.667 416.400,200.800 416.133,200.800 414.800 C 200.800 413.360,200.700 413.200,199.800 413.200 C 199.091 413.200,198.800 413.417,198.800 413.946 M268.880 414.880 C 268.213 415.547,268.280 416.400,269.000 416.400 C 269.330 416.400,269.600 416.670,269.600 417.000 C 269.600 417.400,270.000 417.600,270.800 417.600 C 272.400 417.600,272.408 416.452,270.816 415.275 C 269.430 414.251,269.496 414.264,268.880 414.880 M289.700 415.363 C 288.486 416.644,288.529 417.600,289.800 417.600 C 290.422 417.600,290.800 417.373,290.800 417.000 C 290.800 416.670,291.070 416.400,291.400 416.400 C 292.199 416.400,292.172 414.952,291.367 414.643 C 290.570 414.337,290.745 414.261,289.700 415.363 M167.200 416.600 C 167.200 417.222,167.427 417.600,167.800 417.600 C 168.130 417.600,168.400 417.870,168.400 418.200 C 168.400 418.971,169.953 418.989,170.247 418.221 C 170.574 417.369,169.141 415.627,168.100 415.613 C 167.403 415.603,167.200 415.826,167.200 416.600 M272.680 417.053 C 271.977 417.756,272.424 418.800,273.428 418.800 C 274.264 418.800,274.432 418.633,274.328 417.904 C 274.201 417.017,273.222 416.511,272.680 417.053 M286.667 417.067 C 285.986 417.747,286.431 418.800,287.400 418.800 C 288.465 418.800,288.714 418.074,287.920 417.280 C 287.376 416.736,287.052 416.681,286.667 417.067 M275.067 418.267 C 273.681 419.653,274.750 420.000,280.400 420.000 C 286.105 420.000,286.826 419.786,285.520 418.480 C 285.005 417.965,275.561 417.773,275.067 418.267 M172.900 420.694 C 172.191 420.939,172.277 422.400,173.000 422.400 C 173.330 422.400,173.600 422.670,173.600 423.000 C 173.600 423.373,173.978 423.600,174.600 423.600 C 175.294 423.600,175.593 423.386,175.578 422.900 C 175.551 422.057,173.603 420.452,172.900 420.694 M191.480 422.253 C 190.852 422.881,191.251 423.600,192.229 423.600 C 192.992 423.600,193.224 423.420,193.125 422.905 C 192.985 422.176,191.962 421.771,191.480 422.253 M176.700 423.114 C 175.255 423.413,175.946 424.400,177.600 424.400 C 178.696 424.400,179.200 424.226,179.200 423.847 C 179.200 423.261,177.872 422.872,176.700 423.114 M188.800 423.772 C 188.800 424.181,189.161 424.400,189.833 424.400 C 191.086 424.400,190.949 423.461,189.669 423.272 C 189.092 423.187,188.800 423.355,188.800 423.772 " stroke="none" fill="#949494" fill-rule="evenodd"></path><path id="path1" d="M205.200 0.573 C 205.200 1.341,203.939 1.700,202.766 1.266 C 201.998 0.982,201.737 1.075,201.398 1.754 C 201.168 2.215,200.624 2.658,200.190 2.738 C 199.755 2.817,199.126 3.125,198.791 3.421 C 198.385 3.780,197.985 3.835,197.591 3.586 C 196.686 3.013,195.600 3.130,195.600 3.800 C 195.600 4.130,195.330 4.400,195.000 4.400 C 194.274 4.400,194.234 4.946,194.886 5.988 C 195.459 6.907,194.008 8.800,192.730 8.800 C 191.902 8.800,191.789 9.229,192.445 9.885 C 193.032 10.472,192.552 11.200,191.576 11.200 C 190.752 11.200,190.531 11.787,191.200 12.200 C 191.421 12.336,191.600 14.130,191.600 16.200 C 191.600 18.270,191.421 20.064,191.200 20.200 C 190.447 20.665,190.753 22.000,191.613 22.000 C 192.620 22.000,193.057 23.008,192.396 23.805 C 191.991 24.293,192.028 24.400,192.605 24.400 C 193.806 24.400,195.383 26.416,194.850 27.269 C 194.233 28.257,194.286 28.800,195.000 28.800 C 195.330 28.800,195.600 29.059,195.600 29.376 C 195.600 30.181,196.381 30.579,196.915 30.045 C 197.540 29.420,198.673 29.491,198.934 30.171 C 199.054 30.485,199.658 30.800,200.276 30.871 C 201.097 30.965,201.435 31.249,201.531 31.923 C 201.634 32.652,201.776 32.751,202.207 32.394 C 203.133 31.626,204.982 32.073,205.128 33.100 C 205.335 34.560,210.595 34.470,210.964 33.000 C 211.221 31.978,214.000 31.429,214.000 32.400 C 214.000 32.620,214.180 32.800,214.400 32.800 C 214.620 32.800,214.800 32.350,214.800 31.800 C 214.800 30.705,215.859 30.419,216.720 31.280 C 217.093 31.653,217.200 31.574,217.200 30.924 C 217.200 29.956,221.310 25.600,222.223 25.600 C 222.687 25.600,222.736 25.428,222.433 24.861 C 222.009 24.070,222.540 23.200,223.445 23.200 C 223.813 23.200,223.826 22.923,223.500 22.059 C 222.959 20.627,223.330 19.600,224.387 19.600 C 225.688 19.600,225.609 14.369,224.300 13.795 C 223.313 13.362,222.880 11.760,223.566 11.074 C 224.222 10.418,224.089 10.000,223.224 10.000 C 222.248 10.000,221.768 9.272,222.355 8.685 C 222.988 8.052,222.906 7.600,222.157 7.600 C 221.319 7.600,217.200 3.481,217.200 2.643 C 217.200 1.894,216.748 1.812,216.115 2.445 C 215.517 3.043,214.800 2.545,214.800 1.534 C 214.800 0.908,214.635 0.784,214.100 1.009 C 212.413 1.718,211.653 1.675,211.133 0.841 C 210.472 -0.217,205.200 -0.455,205.200 0.573 M298.728 17.700 C 298.586 18.700,297.011 19.171,296.274 18.434 C 295.629 17.789,295.200 17.907,295.200 18.730 C 295.200 19.979,293.422 21.347,292.464 20.834 C 291.346 20.236,290.800 20.291,290.800 21.000 C 290.800 21.330,290.530 21.600,290.200 21.600 C 289.472 21.600,289.408 22.846,290.100 23.547 C 290.501 23.953,290.461 24.157,289.900 24.571 C 289.515 24.855,289.200 25.451,289.200 25.895 C 289.200 26.339,288.940 26.918,288.622 27.181 C 288.305 27.445,287.990 28.322,287.922 29.130 C 287.833 30.202,287.556 30.707,286.900 30.995 C 286.200 31.302,286.000 31.719,286.000 32.867 C 286.000 34.095,286.152 34.366,286.900 34.472 C 287.910 34.616,288.385 36.984,287.662 38.275 C 287.364 38.808,287.471 39.061,288.135 39.392 C 288.607 39.628,289.058 40.176,289.138 40.610 C 289.217 41.045,289.566 41.719,289.912 42.109 C 290.394 42.653,290.431 42.929,290.071 43.289 C 289.132 44.228,289.547 45.108,291.100 45.474 C 292.199 45.732,292.634 46.061,292.726 46.700 C 292.834 47.448,292.961 47.506,293.604 47.105 C 294.208 46.727,294.503 46.769,295.109 47.318 C 295.524 47.693,296.254 48.000,296.731 48.000 C 297.391 48.000,297.600 48.240,297.600 49.000 C 297.600 50.010,298.145 50.337,298.600 49.600 C 298.978 48.988,308.677 49.077,309.059 49.696 C 309.266 50.031,309.442 49.868,309.599 49.196 C 309.757 48.523,310.152 48.158,310.816 48.072 C 311.357 48.001,312.029 47.646,312.310 47.282 C 312.731 46.736,312.957 46.706,313.604 47.110 C 314.673 47.777,315.600 47.726,315.600 47.000 C 315.600 46.670,315.870 46.400,316.200 46.400 C 316.917 46.400,316.953 45.974,316.349 44.647 C 315.856 43.566,317.398 41.600,318.738 41.600 C 319.222 41.600,319.253 41.493,318.880 41.120 C 318.104 40.344,318.325 39.634,319.429 39.357 C 320.162 39.173,320.335 38.975,320.029 38.669 C 319.485 38.125,319.458 30.935,320.000 30.600 C 320.787 30.114,320.413 28.890,319.400 28.636 C 318.394 28.383,318.056 27.460,318.800 27.000 C 319.537 26.545,319.210 26.000,318.200 26.000 C 317.169 26.000,316.745 24.728,317.600 24.200 C 318.484 23.654,317.942 22.825,316.527 22.560 C 315.000 22.273,313.200 20.722,313.200 19.693 C 313.200 19.213,313.087 19.196,312.600 19.600 C 311.884 20.194,310.800 19.514,310.800 18.471 C 310.800 17.980,310.693 17.947,310.320 18.320 C 309.404 19.236,307.642 18.905,307.355 17.763 C 307.132 16.874,306.946 16.766,306.047 17.006 C 304.029 17.545,300.324 17.684,299.878 17.238 C 299.211 16.571,298.869 16.709,298.728 17.700 M111.127 28.700 C 110.989 29.892,109.500 30.460,108.674 29.634 C 108.002 28.962,107.600 29.118,107.600 30.050 C 107.600 30.781,107.432 30.866,106.400 30.660 C 105.469 30.474,105.200 30.563,105.200 31.057 C 105.200 31.884,102.284 34.800,101.457 34.800 C 100.963 34.800,100.874 35.069,101.060 36.000 C 101.206 36.729,101.134 37.200,100.877 37.200 C 100.644 37.200,100.396 37.695,100.327 38.300 C 100.226 39.171,99.966 39.427,99.075 39.529 C 98.148 39.635,98.034 39.759,98.427 40.233 C 99.068 41.005,99.025 49.046,98.376 49.829 C 97.993 50.290,98.050 50.400,98.671 50.400 C 99.619 50.400,100.400 51.137,100.400 52.031 C 100.400 52.400,100.666 52.923,100.992 53.193 C 101.421 53.550,101.476 53.884,101.192 54.416 C 100.635 55.456,100.706 56.000,101.400 56.000 C 101.730 56.000,102.000 56.270,102.000 56.600 C 102.000 56.930,102.270 57.200,102.600 57.200 C 102.933 57.200,103.200 57.556,103.200 58.000 C 103.200 58.907,103.674 59.010,104.750 58.338 C 105.334 57.974,105.687 58.016,106.434 58.538 C 106.953 58.902,107.698 59.200,108.089 59.200 C 108.595 59.200,108.800 59.512,108.800 60.280 C 108.800 61.120,108.907 61.253,109.280 60.880 C 109.945 60.215,119.655 60.215,120.320 60.880 C 120.693 61.253,120.800 61.172,120.800 60.516 C 120.800 59.429,124.198 57.638,124.910 58.350 C 125.619 59.059,126.400 58.876,126.400 58.000 C 126.400 57.556,126.667 57.200,127.000 57.200 C 127.330 57.200,127.600 56.930,127.600 56.600 C 127.600 56.267,127.956 56.000,128.400 56.000 C 129.278 56.000,129.459 55.219,128.747 54.507 C 128.088 53.848,128.634 52.800,129.636 52.800 C 130.354 52.800,130.415 52.700,130.004 52.205 C 129.330 51.393,129.788 50.400,130.836 50.400 C 131.537 50.400,131.610 50.293,131.225 49.830 C 130.371 48.801,130.855 45.821,131.900 45.672 C 133.219 45.485,133.142 43.773,131.800 43.436 C 130.695 43.158,130.365 40.760,131.214 39.174 C 131.573 38.503,131.493 38.400,130.614 38.400 C 129.506 38.400,129.213 37.347,130.080 36.480 C 130.453 36.107,130.380 36.000,129.750 36.000 C 128.372 36.000,127.152 34.342,127.446 32.870 C 127.714 31.528,127.342 31.282,126.070 31.962 C 125.191 32.433,123.200 30.788,123.200 29.591 C 123.200 28.820,123.143 28.800,122.571 29.371 C 121.385 30.558,119.600 29.889,119.600 28.258 C 119.600 27.526,119.553 27.518,118.869 28.138 C 117.936 28.982,114.456 29.029,113.376 28.213 C 112.132 27.272,111.269 27.459,111.127 28.700 M375.436 75.800 C 375.158 76.907,373.379 77.219,372.480 76.320 C 372.107 75.947,372.000 75.998,372.000 76.550 C 372.000 77.479,366.501 82.800,365.541 82.800 C 364.746 82.800,364.544 83.394,365.200 83.800 C 365.994 84.291,365.605 85.200,364.600 85.200 C 363.590 85.200,363.263 85.745,364.000 86.200 C 364.612 86.578,364.523 96.277,363.904 96.659 C 363.569 96.866,363.732 97.042,364.404 97.199 C 365.066 97.354,365.447 97.757,365.539 98.401 C 365.615 98.933,365.970 99.583,366.328 99.844 C 366.900 100.262,366.911 100.446,366.417 101.368 C 365.739 102.635,366.133 103.162,368.063 103.566 C 369.102 103.784,369.393 104.042,369.368 104.723 C 369.331 105.740,369.365 105.754,370.361 105.131 C 371.187 104.616,373.200 106.301,373.200 107.507 C 373.200 107.976,373.319 107.999,373.776 107.620 C 374.727 106.830,376.580 107.257,376.728 108.300 C 376.875 109.339,378.640 109.557,380.005 108.704 C 380.638 108.309,380.962 108.309,381.595 108.704 C 382.753 109.427,383.359 109.316,383.805 108.300 C 384.238 107.313,385.840 106.880,386.526 107.566 C 387.227 108.267,387.600 108.070,387.600 107.000 C 387.600 105.969,388.872 105.545,389.400 106.400 C 389.972 107.326,390.800 106.743,391.039 105.244 C 391.271 103.796,391.399 103.670,392.888 103.432 C 394.553 103.166,394.576 103.110,393.955 100.833 C 393.870 100.521,394.192 100.061,394.671 99.810 C 395.282 99.491,395.439 99.186,395.194 98.791 C 394.782 98.124,395.421 97.200,396.296 97.200 C 396.755 97.200,396.823 96.945,396.588 96.100 C 396.204 94.716,396.191 90.523,396.567 89.200 C 396.797 88.391,396.674 88.124,395.925 87.800 C 394.916 87.364,394.472 85.768,395.166 85.074 C 395.766 84.474,395.710 83.941,395.063 84.082 C 394.346 84.239,387.600 77.470,387.600 76.595 C 387.600 76.034,387.364 75.957,386.300 76.174 C 383.638 76.716,383.016 76.636,382.605 75.700 C 382.171 74.710,381.231 74.529,380.470 75.290 C 380.083 75.677,379.815 75.677,379.195 75.290 C 377.751 74.388,375.721 74.663,375.436 75.800 M43.436 95.400 C 43.173 96.446,41.141 96.876,40.600 96.000 C 40.145 95.263,39.600 95.590,39.600 96.600 C 39.600 97.695,38.541 97.981,37.680 97.120 C 37.307 96.747,37.200 96.828,37.200 97.485 C 37.200 98.478,33.137 102.800,32.203 102.800 C 31.713 102.800,31.660 102.965,31.967 103.539 C 32.391 104.330,31.860 105.200,30.955 105.200 C 30.587 105.200,30.574 105.477,30.900 106.341 C 31.441 107.773,31.070 108.800,30.013 108.800 C 28.685 108.800,28.771 115.883,30.100 116.072 C 31.100 116.214,31.571 117.789,30.834 118.526 C 30.197 119.163,30.304 119.599,31.100 119.607 C 32.456 119.620,33.678 121.391,33.143 122.566 C 32.541 123.886,32.915 124.258,34.237 123.656 C 35.378 123.136,38.400 125.529,38.400 126.953 C 38.400 127.701,38.850 127.790,39.474 127.166 C 40.160 126.480,41.762 126.913,42.195 127.900 C 42.634 128.901,44.260 129.117,45.669 128.363 C 46.260 128.047,46.607 128.047,46.923 128.363 C 47.719 129.159,49.133 128.880,49.272 127.900 C 49.420 126.857,51.273 126.430,52.224 127.220 C 52.679 127.598,52.800 127.579,52.800 127.129 C 52.800 126.149,53.641 125.594,54.461 126.033 C 55.019 126.331,55.200 126.288,55.200 125.858 C 55.200 124.927,59.515 120.800,60.488 120.800 C 61.166 120.800,61.253 120.693,60.880 120.320 C 60.019 119.459,60.305 118.400,61.400 118.400 C 62.467 118.400,62.667 118.027,61.973 117.333 C 61.195 116.555,61.697 113.845,62.700 113.405 C 63.467 113.069,63.600 112.704,63.600 110.933 C 63.600 109.083,63.501 108.842,62.700 108.728 C 61.655 108.579,61.171 105.599,62.025 104.570 C 62.398 104.121,62.374 104.000,61.911 104.000 C 60.626 104.000,58.962 102.072,59.502 101.208 C 60.177 100.128,60.130 99.200,59.400 99.200 C 59.070 99.200,58.800 98.930,58.800 98.600 C 58.800 98.270,58.595 98.000,58.344 98.000 C 58.093 98.000,57.661 97.690,57.384 97.311 C 56.944 96.709,56.753 96.690,55.878 97.158 C 54.700 97.789,54.000 97.479,54.000 96.327 C 54.000 95.655,53.894 95.590,53.424 95.980 C 52.473 96.770,50.620 96.343,50.472 95.300 C 50.325 94.261,48.560 94.043,47.195 94.896 C 46.562 95.291,46.238 95.291,45.605 94.896 C 44.394 94.140,43.712 94.298,43.436 95.400 M13.882 185.193 C 14.192 186.376,12.237 187.047,10.946 186.201 C 10.059 185.620,10.000 185.632,10.000 186.391 C 10.000 188.010,7.665 189.463,6.932 188.300 C 6.724 187.971,6.545 188.204,6.407 188.985 C 6.233 189.968,5.936 190.233,4.664 190.533 C 3.526 190.802,3.179 191.063,3.317 191.548 C 3.419 191.907,3.569 192.455,3.651 192.767 C 3.733 193.079,3.434 193.529,2.987 193.767 C 2.314 194.126,2.239 194.380,2.548 195.253 C 3.031 196.615,2.638 197.600,1.613 197.600 C 0.714 197.600,0.570 198.010,1.235 198.675 C 1.679 199.119,1.537 203.401,0.997 205.867 C 0.751 206.989,0.827 207.149,1.659 207.267 C 2.306 207.358,2.643 207.707,2.739 208.384 C 2.815 208.926,3.175 209.589,3.539 209.857 C 4.068 210.249,4.101 210.447,3.700 210.853 C 3.015 211.548,3.073 212.000,3.847 212.000 C 4.853 212.000,7.461 214.853,7.778 216.300 C 8.072 217.639,9.012 218.028,9.874 217.166 C 10.624 216.416,12.186 216.901,12.332 217.931 C 12.429 218.619,12.637 218.791,13.132 218.593 C 14.034 218.231,20.437 218.206,21.247 218.561 C 21.709 218.764,21.960 218.595,22.123 217.971 C 22.303 217.285,22.572 217.140,23.376 217.293 C 23.999 217.412,24.400 217.307,24.400 217.025 C 24.400 216.137,25.278 215.613,26.061 216.033 C 26.623 216.333,26.800 216.288,26.800 215.844 C 26.800 215.017,30.050 212.009,30.949 212.004 C 31.566 212.001,31.611 211.896,31.204 211.405 C 30.530 210.593,30.988 209.600,32.036 209.600 C 32.754 209.600,32.815 209.500,32.404 209.005 C 31.743 208.208,32.180 207.200,33.187 207.200 C 34.060 207.200,34.382 205.483,33.600 205.000 C 33.003 204.631,33.089 198.516,33.696 198.141 C 34.031 197.934,33.868 197.758,33.196 197.601 C 32.063 197.336,31.607 195.556,32.420 194.576 C 32.811 194.105,32.741 194.000,32.036 194.000 C 31.034 194.000,30.488 192.952,31.147 192.293 C 31.944 191.496,31.636 190.871,30.300 190.580 C 29.585 190.424,28.571 189.959,28.046 189.548 C 27.521 189.137,26.878 188.800,26.616 188.800 C 25.920 188.800,24.400 187.061,24.400 186.265 C 24.400 185.654,24.305 185.642,23.500 186.152 C 22.342 186.886,20.800 186.349,20.800 185.213 C 20.800 184.353,19.466 184.047,19.000 184.800 C 18.864 185.020,18.144 185.200,17.400 185.200 C 16.656 185.200,15.936 185.020,15.800 184.800 C 15.303 183.995,13.657 184.333,13.882 185.193 M28.645 279.363 C 28.385 280.399,27.467 280.755,27.000 280.000 C 26.864 279.780,26.573 279.600,26.353 279.600 C 26.133 279.600,26.068 279.787,26.209 280.015 C 26.350 280.243,25.281 281.632,23.833 283.101 C 22.385 284.571,21.200 286.072,21.200 286.437 C 21.200 286.803,20.941 287.317,20.624 287.580 C 20.307 287.843,19.992 288.450,19.924 288.929 C 19.846 289.479,19.468 289.847,18.900 289.928 C 17.954 290.062,17.593 291.701,18.400 292.200 C 18.620 292.336,18.800 293.236,18.800 294.200 C 18.800 295.164,18.620 296.064,18.400 296.200 C 17.618 296.683,17.940 298.400,18.813 298.400 C 19.870 298.400,20.241 299.427,19.700 300.859 C 19.319 301.870,19.358 302.000,20.047 302.000 C 21.025 302.000,21.448 303.020,20.796 303.805 C 20.394 304.289,20.421 304.400,20.941 304.400 C 21.919 304.400,26.530 309.085,26.255 309.800 C 26.000 310.466,26.611 310.630,27.000 310.000 C 27.465 309.247,28.385 309.599,28.643 310.629 C 28.827 311.362,29.025 311.535,29.331 311.229 C 29.951 310.609,40.494 310.654,41.120 311.280 C 41.493 311.653,41.600 311.622,41.600 311.138 C 41.600 309.651,44.355 307.756,45.000 308.800 C 45.581 309.739,46.400 309.139,46.647 307.595 C 46.848 306.341,47.114 305.936,47.863 305.749 C 48.632 305.555,48.729 305.397,48.356 304.946 C 47.995 304.512,48.030 304.228,48.508 303.692 C 48.849 303.312,49.188 302.557,49.264 302.016 C 49.350 301.396,49.728 300.953,50.288 300.816 C 50.963 300.652,51.084 300.456,50.794 300.000 C 50.283 299.198,50.289 291.316,50.800 291.000 C 51.693 290.448,51.243 288.800,50.200 288.800 C 49.105 288.800,48.819 287.741,49.680 286.880 C 50.053 286.507,50.001 286.400,49.444 286.400 C 48.658 286.400,42.800 280.793,42.800 280.041 C 42.800 279.709,42.584 279.687,42.061 279.967 C 41.253 280.400,40.400 279.855,40.400 278.906 C 40.400 278.487,40.219 278.469,39.559 278.822 C 38.686 279.289,31.962 279.137,29.953 278.604 C 29.054 278.366,28.868 278.475,28.645 279.363 M362.000 336.992 C 362.000 338.135,360.528 338.735,359.347 338.074 C 358.787 337.761,358.545 337.859,358.208 338.538 C 357.731 339.498,356.143 339.903,355.474 339.234 C 354.570 338.330,353.644 338.758,353.373 340.206 C 353.065 341.844,350.712 344.400,349.511 344.400 C 348.840 344.400,348.786 344.502,349.196 344.995 C 349.857 345.792,349.420 346.800,348.413 346.800 C 347.559 346.800,347.319 347.379,348.000 347.800 C 348.599 348.170,348.482 349.834,347.818 350.385 C 347.497 350.651,347.047 350.753,346.818 350.611 C 346.542 350.440,346.400 351.369,346.400 353.349 C 346.400 356.151,346.458 356.353,347.300 356.472 C 348.345 356.621,348.829 359.601,347.975 360.630 C 347.596 361.087,347.642 361.200,348.205 361.200 C 349.406 361.200,350.983 363.216,350.450 364.069 C 349.647 365.354,349.900 365.708,351.417 365.423 C 352.661 365.190,352.966 365.307,353.906 366.379 C 354.499 367.054,355.376 367.600,355.869 367.600 C 356.359 367.600,356.904 367.857,357.080 368.170 C 357.256 368.484,358.120 368.799,359.000 368.870 C 360.307 368.976,360.623 369.165,360.728 369.900 C 360.871 370.905,361.612 371.049,362.805 370.304 C 363.438 369.909,363.762 369.909,364.395 370.304 C 365.588 371.049,366.329 370.905,366.472 369.900 C 366.615 368.895,368.558 368.398,369.329 369.169 C 370.027 369.867,370.400 369.669,370.400 368.600 C 370.400 367.518,370.818 367.367,372.026 368.014 C 372.681 368.365,372.800 368.294,372.800 367.555 C 372.800 366.607,376.991 362.416,377.949 362.406 C 378.389 362.401,378.400 362.282,378.004 361.805 C 377.339 361.004,377.783 360.000,378.802 360.000 C 379.507 360.000,379.565 359.882,379.196 359.192 C 378.669 358.207,378.985 357.600,380.024 357.600 C 380.879 357.600,381.201 354.695,380.400 354.200 C 380.180 354.064,380.000 353.434,380.000 352.800 C 380.000 352.166,380.180 351.536,380.400 351.400 C 381.207 350.901,380.846 349.262,379.900 349.128 C 378.900 348.986,378.429 347.411,379.166 346.674 C 379.829 346.011,379.690 345.668,378.700 345.528 C 377.791 345.398,377.706 345.004,378.221 343.300 C 378.425 342.626,378.331 342.400,377.847 342.400 C 377.491 342.400,377.200 342.130,377.200 341.800 C 377.200 341.470,376.930 341.200,376.600 341.200 C 376.270 341.200,376.000 340.930,376.000 340.600 C 376.000 339.894,374.760 339.800,374.104 340.456 C 373.591 340.969,371.200 339.019,371.200 338.087 C 371.200 337.702,371.005 337.676,370.426 337.986 C 368.615 338.955,366.400 338.259,366.400 336.720 C 366.400 336.114,366.052 336.000,364.200 336.000 C 362.125 336.000,362.000 336.056,362.000 336.992 M90.328 353.300 C 90.180 354.343,88.327 354.770,87.376 353.980 C 86.917 353.599,86.800 353.628,86.800 354.121 C 86.800 355.005,81.244 360.400,80.333 360.400 C 79.704 360.400,79.644 360.535,79.986 361.174 C 80.633 362.382,80.482 362.800,79.400 362.800 C 78.850 362.800,78.400 362.980,78.400 363.200 C 78.400 363.420,78.589 363.600,78.821 363.600 C 79.771 363.600,79.073 367.790,78.100 367.928 C 77.605 367.998,77.200 368.211,77.200 368.400 C 77.200 368.589,77.605 368.802,78.100 368.872 C 79.149 369.021,79.667 373.155,78.772 374.234 C 78.391 374.692,78.466 374.800,79.164 374.800 C 80.212 374.800,80.670 375.793,79.996 376.605 C 79.586 377.099,79.642 377.200,80.327 377.200 C 81.479 377.200,81.789 377.900,81.158 379.078 C 80.538 380.236,81.429 381.274,82.747 380.930 C 83.613 380.703,84.576 381.765,84.257 382.595 C 83.977 383.324,84.168 383.351,85.171 382.725 C 86.076 382.160,87.981 383.662,87.993 384.949 C 87.999 385.555,88.110 385.607,88.576 385.220 C 89.527 384.430,91.380 384.857,91.528 385.900 C 91.735 387.360,96.995 387.270,97.364 385.800 C 97.625 384.762,101.600 384.199,101.600 385.200 C 101.600 385.420,101.780 385.600,102.000 385.600 C 102.220 385.600,102.400 385.234,102.400 384.787 C 102.400 383.780,103.408 383.343,104.205 384.004 C 104.697 384.413,104.800 384.362,104.800 383.711 C 104.800 382.832,107.860 379.600,108.693 379.600 C 109.089 379.600,109.126 379.408,108.833 378.861 C 108.400 378.053,108.945 377.200,109.894 377.200 C 110.289 377.200,110.325 377.008,110.033 376.461 C 109.594 375.642,110.148 374.800,111.127 374.800 C 111.549 374.800,111.619 374.520,111.400 373.700 C 110.890 371.789,110.720 367.272,111.130 366.539 C 111.438 365.988,111.337 365.743,110.662 365.408 C 109.702 364.931,109.297 363.343,109.966 362.674 C 110.592 362.048,110.500 361.600,109.744 361.600 C 109.383 361.600,107.759 360.250,106.136 358.600 C 104.485 356.922,102.844 355.600,102.412 355.600 C 101.987 355.600,101.496 355.343,101.320 355.030 C 101.144 354.716,100.298 354.401,99.441 354.330 C 98.385 354.242,97.739 353.942,97.441 353.400 C 97.198 352.960,96.956 352.526,96.902 352.435 C 96.848 352.345,96.068 352.514,95.168 352.810 C 93.891 353.232,93.366 353.246,92.772 352.875 C 91.539 352.105,90.471 352.291,90.328 353.300 M276.728 386.500 C 276.580 387.543,274.727 387.970,273.776 387.180 C 273.312 386.795,273.200 386.839,273.200 387.405 C 273.200 388.606,271.184 390.183,270.331 389.650 C 269.367 389.048,269.332 389.064,269.368 390.080 C 269.394 390.804,269.097 391.022,267.700 391.304 C 265.898 391.668,265.625 392.196,266.500 393.630 C 266.917 394.313,266.891 394.530,266.339 394.940 C 265.975 395.210,265.615 395.867,265.539 396.399 C 265.447 397.043,265.066 397.446,264.404 397.601 C 263.732 397.758,263.569 397.934,263.904 398.141 C 264.515 398.518,264.602 405.828,264.000 406.200 C 263.107 406.752,263.557 408.400,264.600 408.400 C 265.605 408.400,265.994 409.309,265.200 409.800 C 264.524 410.218,264.756 410.800,265.600 410.800 C 267.120 410.800,268.676 413.135,267.600 413.800 C 267.380 413.936,267.200 414.307,267.200 414.624 C 267.200 415.303,268.448 415.392,269.081 414.759 C 269.681 414.159,272.000 415.878,272.000 416.924 C 272.000 417.564,272.103 417.612,272.595 417.204 C 273.417 416.522,274.400 416.992,274.400 418.067 C 274.400 418.762,274.507 418.853,274.880 418.480 C 275.481 417.879,285.033 417.807,285.400 418.400 C 285.813 419.069,286.400 418.848,286.400 418.024 C 286.400 417.048,287.128 416.568,287.715 417.155 C 288.363 417.803,288.799 417.701,288.807 416.900 C 288.819 415.682,290.631 414.281,291.555 414.776 C 292.654 415.364,293.200 415.306,293.200 414.600 C 293.200 414.270,293.470 414.000,293.800 414.000 C 294.516 414.000,294.596 412.756,293.923 412.083 C 293.383 411.543,295.306 409.200,296.289 409.200 C 296.708 409.200,296.731 409.018,296.390 408.382 C 295.687 407.067,296.064 405.060,297.100 404.605 C 298.181 404.131,298.494 400.000,297.449 400.000 C 296.428 400.000,295.829 398.846,296.244 397.676 C 296.563 396.777,296.492 396.529,295.813 396.167 C 294.982 395.725,294.938 395.521,295.413 394.300 C 295.615 393.781,295.486 393.600,294.913 393.600 C 293.768 393.600,292.117 391.723,292.725 391.115 C 293.927 389.913,293.080 388.768,291.651 389.661 C 290.678 390.269,288.831 388.992,288.813 387.700 C 288.806 387.205,288.620 386.800,288.400 386.800 C 288.180 386.800,288.000 386.990,288.000 387.222 C 288.000 388.119,284.231 387.470,283.805 386.500 C 283.400 385.576,282.241 385.287,281.800 386.000 C 281.664 386.220,280.944 386.400,280.200 386.400 C 279.456 386.400,278.736 386.220,278.600 386.000 C 278.126 385.232,276.860 385.570,276.728 386.500 M178.000 392.364 C 178.000 393.634,173.902 395.383,173.465 394.300 C 173.354 394.025,173.247 394.160,173.227 394.600 C 173.175 395.738,170.215 398.800,169.167 398.800 C 168.447 398.800,168.385 398.900,168.796 399.395 C 169.478 400.217,169.008 401.200,167.933 401.200 C 167.238 401.200,167.147 401.307,167.520 401.680 C 168.479 402.639,168.119 404.800,167.000 404.800 C 165.886 404.800,165.702 405.534,166.496 406.805 C 166.891 407.438,166.891 407.762,166.496 408.395 C 165.581 409.861,165.852 412.000,166.953 412.000 C 168.130 412.000,168.565 413.586,167.720 414.792 C 167.202 415.532,167.232 415.601,168.077 415.613 C 169.392 415.630,170.675 417.467,170.061 418.451 C 169.433 419.456,169.482 420.000,170.200 420.000 C 170.530 420.000,170.800 420.270,170.800 420.600 C 170.800 421.273,171.707 421.385,172.730 420.838 C 173.518 420.416,175.600 421.961,175.600 422.968 C 175.600 423.421,175.818 423.494,176.464 423.255 C 177.628 422.824,179.200 423.164,179.200 423.847 C 179.200 424.287,180.180 424.400,184.000 424.400 C 188.164 424.400,188.800 424.314,188.800 423.750 C 188.800 423.246,189.061 423.152,189.958 423.332 C 190.900 423.520,191.157 423.408,191.334 422.732 C 191.507 422.067,191.756 421.952,192.575 422.158 C 193.319 422.345,193.600 422.258,193.600 421.840 C 193.600 421.523,194.407 420.485,195.393 419.532 C 196.380 418.579,197.190 417.558,197.193 417.263 C 197.197 416.968,197.560 416.269,198.000 415.709 C 198.440 415.150,198.800 414.356,198.800 413.946 C 198.800 413.417,199.091 413.200,199.800 413.200 C 200.877 413.200,201.186 412.146,200.353 411.313 C 199.625 410.585,199.524 406.776,200.205 405.736 C 201.101 404.369,200.955 403.600,199.800 403.600 C 199.108 403.600,198.800 403.381,198.800 402.889 C 198.800 402.498,198.518 401.776,198.174 401.285 C 197.816 400.773,197.657 400.052,197.801 399.596 C 197.969 399.067,197.871 398.800,197.508 398.800 C 196.592 398.800,192.400 394.534,192.400 393.603 C 192.400 392.832,192.327 392.806,191.592 393.320 C 190.358 394.185,188.800 393.729,188.800 392.504 C 188.800 391.679,188.699 391.586,188.226 391.978 C 187.374 392.686,180.988 392.831,180.107 392.162 C 179.060 391.367,178.000 391.469,178.000 392.364 " stroke="none" fill="#242424" fill-rule="evenodd"></path></g></svg>